<?xml version="1.0" standalone="no"?>
<!DOCTYPE svg PUBLIC "-//W3C//DTD SVG 1.1//EN" "http://www.w3.org/Graphics/SVG/1.1/DTD/svg11.dtd" >
<svg xmlns="http://www.w3.org/2000/svg" xmlns:xlink="http://www.w3.org/1999/xlink" version="1.1">
<metadata>
Created by FontForge 20170731 at Fri Apr 23 12:45:04 1999
 By Aleksey,,,
(URW)++,Copyright 1999 by (URW)++ Design &#38; Development
</metadata>
<defs>
<font id="AlternateGotNo1D" horiz-adv-x="1024" vert-adv-y="2048" >
  <font-face 
    font-family="AlternateGotNo1D"
    font-weight="400"
    font-stretch="normal"
    units-per-em="2048"
    panose-1="0 0 0 0 0 0 0 0 0 3"
    ascent="1685"
    descent="-363"
    x-height="1017"
    cap-height="1365"
    bbox="-157 -512 1505 1757"
    underline-thickness="122"
    underline-position="-384"
    unicode-range="U+0020-F002"
  />
<missing-glyph horiz-adv-x="355" vert-adv-y="1731" 
d="M36 0v1365h283v-1365h-283zM283 36v1293h-211v-1293h211z" />
    <glyph glyph-name=".notdef" horiz-adv-x="355" vert-adv-y="1731" 
d="M36 0v1365h283v-1365h-283zM283 36v1293h-211v-1293h211z" />
    <glyph glyph-name="glyph1" horiz-adv-x="0" vert-adv-y="0" 
 />
    <glyph glyph-name="glyph2" horiz-adv-x="355" vert-adv-y="1731" 
 />
    <glyph glyph-name="space" unicode=" " horiz-adv-x="355" vert-adv-y="1731" 
 />
    <glyph glyph-name="space" unicode="&#xa0;" horiz-adv-x="355" vert-adv-y="1731" 
 />
    <glyph glyph-name="exclam" unicode="!" horiz-adv-x="458" vert-adv-y="1731" 
d="M165 382l-42 983h213l-48 -983h-123zM134 0v205h191v-205h-191z" />
    <glyph glyph-name="quotedbl" unicode="&#x22;" horiz-adv-x="720" vert-adv-y="1731" 
d="M265 819h-142l-32 546h207zM597 819h-142l-32 546h206z" />
    <glyph glyph-name="numbersign" unicode="#" horiz-adv-x="749" vert-adv-y="1731" 
d="M473 976l54 389h100l-54 -389h83l-19 -139h-83l-46 -325h92l-20 -140h-91l-51 -372h-100l52 372h-129l-52 -372h-100l52 372h-83l21 140h81l45 325h-87l22 139h85l54 389h99l-54 -389h129zM454 837h-129l-45 -325h129z" />
    <glyph glyph-name="dollar" unicode="$" horiz-adv-x="696" vert-adv-y="1731" 
d="M278 1326v121h154v-117q110 -24 155 -138q24 -67 23 -198l-177 -18q-1 82 -6 116q-11 80 -74 80q-78 0 -78 -120q0 -65 32 -123q19 -34 96 -148l92 -131q62 -88 92 -155q37 -85 37 -175q0 -221 -191 -279v-123h-154v117q-56 12 -103 54q-55 50 -75 120q-13 47 -13 136
q0 33 2 69l179 9q-1 -37 -1 -56q0 -78 9 -108q20 -67 82 -67q85 0 85 126q0 62 -31 128q-20 43 -80 122l-90 131q-72 104 -104 176q-43 95 -43 188q0 167 120 237q26 16 62 26z" />
    <glyph glyph-name="percent" unicode="%" horiz-adv-x="971" vert-adv-y="1731" 
d="M368 1185v-355q0 -64 -4 -88t-19 -48q-38 -59 -120 -59t-120 59q-20 31 -22 71q-1 22 -1 65v355q0 72 6 94q14 57 64 83q33 17 73 17q82 0 120 -59q20 -31 22 -70q1 -22 1 -65zM267 793v428q0 59 -42 59t-42 -59v-428q0 -58 42 -58t42 58zM242 -68l386 1502h102
l-394 -1502h-94zM889 537v-355q0 -73 -6 -95q-14 -57 -64 -83q-33 -18 -73 -18q-82 0 -120 60q-20 31 -22 70q-1 23 -1 66v354q0 72 6 95q14 56 64 82q33 17 73 17q82 0 120 -59q20 -31 22 -69q1 -22 1 -65zM788 145v428q0 58 -42 58t-42 -58v-428q0 -59 42 -59t42 59z" />
    <glyph glyph-name="ampersand" unicode="&#x26;" horiz-adv-x="855" vert-adv-y="1731" 
d="M771 191v-205q-83 22 -190 125q-52 -56 -84 -77q-75 -49 -168 -49q-106 0 -172 96q-61 88 -61 221q0 184 143 394q-29 58 -50 129q-48 156 -48 257q0 107 52 179q30 41 80 65q51 25 107 25q109 0 173 -77q54 -66 54 -168q0 -149 -116 -322q-41 -61 -74 -104
q60 -151 146 -272q38 91 63 232l161 -20q-20 -187 -110 -350q28 -39 50 -54q13 -10 44 -25zM315 514q-54 -106 -54 -198q0 -65 21 -110q23 -51 72 -51q59 0 120 81q-34 48 -86 136q-50 87 -73 142zM349 855q9 14 19 29q82 129 82 222q0 92 -69 92q-39 0 -61 -31
q-21 -30 -21 -82q0 -62 50 -230z" />
    <glyph glyph-name="quotesingle" unicode="'" horiz-adv-x="394" vert-adv-y="1731" 
d="M271 819h-148l-32 546h212z" />
    <glyph glyph-name="parenleft" unicode="(" horiz-adv-x="559" vert-adv-y="1731" 
d="M491 -180l-128 -73q-281 433 -281 847q0 416 281 848l128 -74q-75 -122 -124 -241q-108 -259 -108 -533t108 -532q49 -119 124 -242z" />
    <glyph glyph-name="parenright" unicode=")" horiz-adv-x="559" vert-adv-y="1731" 
d="M68 1368l128 74q88 -137 141 -249q140 -298 140 -599q0 -415 -281 -847l-128 73q74 120 124 242q108 258 108 532t-108 532q-50 121 -124 242z" />
    <glyph glyph-name="asterisk" unicode="*" horiz-adv-x="641" vert-adv-y="1731" 
d="M225 1176l-143 30l46 143l133 -62l-16 147h151l-16 -147l133 62l46 -143l-143 -30l98 -108l-121 -88l-72 126l-73 -126l-121 88z" />
    <glyph glyph-name="plus" unicode="+" horiz-adv-x="696" vert-adv-y="1731" 
d="M621 776v-135h-199v-219h-149v219h-197v135h197v222h149v-222h199z" />
    <glyph glyph-name="comma" unicode="," horiz-adv-x="382" vert-adv-y="1731" 
d="M96 204h191v-205l-86 -242h-105l70 242h-70v205z" />
    <glyph glyph-name="hyphen" unicode="-" horiz-adv-x="255" vert-adv-y="1731" 
d="M0 427v160h255v-160h-255z" />
    <glyph glyph-name="period" unicode="." horiz-adv-x="382" vert-adv-y="1731" 
d="M96 0v205h191v-205h-191z" />
    <glyph glyph-name="slash" unicode="/" horiz-adv-x="638" vert-adv-y="1731" 
d="M34 -137l427 1502h129l-434 -1502h-122z" />
    <glyph glyph-name="zero" unicode="0" horiz-adv-x="696" vert-adv-y="1731" 
d="M78 348v671q0 137 11 178q26 106 121 155q63 33 139 33q93 0 164 -48q84 -57 101 -167q5 -34 5 -151v-671q0 -137 -11 -179q-26 -106 -121 -156q-63 -33 -138 -33q-94 0 -165 48q-84 58 -101 169q-5 34 -5 151zM428 268v829q0 55 -14 77q-22 34 -66 34q-43 0 -65 -34
q-14 -22 -14 -77v-829q0 -55 14 -77q22 -34 65 -34q44 0 65 34q15 23 15 77z" />
    <glyph glyph-name="glyph20" unicode="1" horiz-adv-x="696" vert-adv-y="1731" 
d="M267 0v1100h-97v136q100 56 169 129h119v-1365h-191z" />
    <glyph glyph-name="two" unicode="2" horiz-adv-x="696" vert-adv-y="1731" 
d="M597 0h-512v156q55 101 193 382q100 205 123 295q23 88 23 205q0 103 -15 140q-13 31 -50 31q-57 0 -71 -75q-9 -51 -10 -166h-179q-1 39 -1 58q0 147 49 236q68 123 220 123q128 0 189 -89q54 -78 54 -206q0 -201 -97 -447q-52 -134 -122 -260l-91 -165l-22 -41h319
v-177z" />
    <glyph glyph-name="three" unicode="3" horiz-adv-x="696" vert-adv-y="1731" 
d="M85 390h185q-1 -33 -1 -51q0 -65 7 -105q13 -78 70 -78q38 0 53 33q11 26 11 106v187q0 73 -26 106q-34 43 -97 43q-11 0 -29 -1v175q74 1 107 33q45 45 45 113v181q0 76 -60 76q-53 0 -64 -48q-6 -31 -6 -156h-177q-1 33 -1 48q0 130 31 201q57 132 211 132
q121 0 185 -86q41 -55 50 -126q7 -53 7 -121q0 -182 -23 -240q-15 -40 -76 -86q68 -28 91 -76q23 -49 23 -307q0 -142 -26 -209q-59 -155 -240 -155q-145 0 -206 103q-47 78 -47 225q0 33 3 83z" />
    <glyph glyph-name="four" unicode="4" horiz-adv-x="696" vert-adv-y="1731" 
d="M356 0v304h-309v177l309 884h191v-884h75v-177h-75v-304h-191zM356 481v495l-149 -495h149z" />
    <glyph glyph-name="five" unicode="5" horiz-adv-x="696" vert-adv-y="1731" 
d="M90 386h178q-1 -37 -1 -56q0 -104 25 -143q18 -30 54 -30q69 0 69 108v413q0 99 -59 99t-88 -112h-163l21 700h446l-8 -177h-283l-13 -329q77 96 151 96q48 0 91 -30q96 -66 96 -285v-316q0 -128 -19 -182q-31 -85 -110 -128q-63 -34 -138 -34q-128 0 -197 96
q-57 79 -57 223q0 44 5 87z" />
    <glyph glyph-name="six" unicode="6" horiz-adv-x="696" vert-adv-y="1731" 
d="M597 1017h-181q2 34 2 54q0 65 -12 95q-17 42 -61 42q-40 0 -59 -34q-12 -23 -12 -95v-304q74 80 149 80q87 0 139 -72q38 -52 45 -114q7 -61 7 -155v-230q0 -145 -73 -223q-75 -82 -198 -82q-89 0 -153 45q-107 75 -107 246v833q0 136 77 213q71 70 179 70q95 0 161 -55
q76 -62 91 -188q6 -47 6 -126zM274 646v-406q0 -39 24 -63q20 -20 49 -20q76 0 76 100v293q0 100 -18 124q-16 22 -43 22q-48 0 -88 -50z" />
    <glyph glyph-name="seven" unicode="7" horiz-adv-x="696" vert-adv-y="1731" 
d="M179 0l202 1188h-287v177h487v-107l-202 -1258h-200z" />
    <glyph glyph-name="eight" unicode="8" horiz-adv-x="696" vert-adv-y="1731" 
d="M494 726q68 -28 91 -76q23 -49 23 -306q0 -142 -26 -209q-59 -155 -234 -155q-130 0 -197 89q-40 51 -51 115q-12 70 -12 160q0 181 8 242q8 69 43 104q19 18 63 36q-61 45 -76 86q-23 59 -23 239q0 119 19 175q53 159 226 159q124 0 188 -86q41 -56 50 -126
q7 -54 7 -122q0 -181 -23 -239q-15 -41 -76 -86zM281 1111v-180q0 -62 17 -87q16 -23 50 -23t50 23q17 25 17 87v180q0 62 -17 87q-16 23 -50 23t-50 -23q-17 -25 -17 -87zM274 505v-229q0 -78 20 -99q21 -22 54 -22t54 22q20 21 20 99v229q0 79 -20 100q-21 22 -54 22
t-54 -22q-20 -21 -20 -100z" />
    <glyph glyph-name="nine" unicode="9" horiz-adv-x="696" vert-adv-y="1731" 
d="M100 348h181q-2 -31 -2 -54q0 -65 12 -95q17 -42 61 -42q40 0 59 34q12 24 12 95v305q-73 -81 -149 -81q-87 0 -139 72q-38 52 -45 114q-7 61 -7 155v230q0 145 73 223q75 82 198 82q89 0 153 -45q107 -75 107 -246v-833q0 -136 -77 -213q-71 -70 -179 -70q-95 0 -161 55
q-76 63 -91 188q-6 47 -6 126zM423 718v407q0 39 -24 63q-20 20 -49 20q-76 0 -76 -99v-294q0 -100 18 -124q16 -22 43 -22q48 0 88 49z" />
    <glyph glyph-name="colon" unicode=":" horiz-adv-x="382" vert-adv-y="1731" 
d="M96 718v205h191v-205h-191zM96 0v205h191v-205h-191z" />
    <glyph glyph-name="semicolon" unicode=";" horiz-adv-x="382" vert-adv-y="1731" 
d="M96 718v205h191v-205h-191zM96 204h191v-205l-86 -242h-105l70 242h-70v205z" />
    <glyph glyph-name="less" unicode="&#x3c;" vert-adv-y="1731" 
d="M955 1199v-192l-682 -320l682 -321v-191l-887 430v165z" />
    <glyph glyph-name="equal" unicode="=" horiz-adv-x="696" vert-adv-y="1731" 
d="M621 639v-135h-545v135h545zM621 912v-135h-545v135h545z" />
    <glyph glyph-name="greater" unicode="&#x3e;" vert-adv-y="1731" 
d="M69 175v192l682 320l-681 321v191l886 -430v-164z" />
    <glyph glyph-name="question" unicode="?" horiz-adv-x="666" vert-adv-y="1731" 
d="M255 375v217q0 137 12.5 191t84.5 222q48 112 48 146q0 26 -23 44q-18 14 -40 14q-55 0 -96 -129l-159 54q59 245 265 245q122 0 189 -82q51 -64 51 -157q0 -55 -21 -116q-9 -24 -102 -202q-36 -69 -45 -145q-6 -46 -6 -141v-161h-158zM238 0v205h191v-205h-191z" />
    <glyph glyph-name="at" unicode="@" horiz-adv-x="827" vert-adv-y="1731" 
d="M738 362h-106l-20 56q-54 -76 -121 -76t-96 32q-40 45 -40 139v384q0 92 37 137q40 50 107 50q54 0 100 -53v44q0 83 -41 128q-52 58 -133 58q-80 0 -130 -59q-38 -43 -44 -99q-4 -36 -4 -89v-638q0 -123 32 -182q50 -91 154 -91q93 0 166 92l83 -95q-94 -121 -248 -121
q-95 0 -175 43q-75 41 -113 126q-37 84 -37 184v713q0 153 73 240q84 100 243 100q124 0 205 -65q108 -88 108 -264v-694zM497 865v-310q0 -45 11 -60q13 -17 40 -17t40 17q11 15 11 60v310q0 45 -11 60q-13 17 -40 17t-40 -17q-11 -15 -11 -60z" />
    <glyph glyph-name="A" unicode="A" horiz-adv-x="720" vert-adv-y="1731" 
d="M273 307l-34 -307h-184l186 1365h247l178 -1365h-188l-34 307h-171zM424 484l-66 634l-65 -634h131z" />
    <glyph glyph-name="B" unicode="B" horiz-adv-x="718" vert-adv-y="1731" 
d="M497 719q73 -28 106 -87q27 -49 33 -104q7 -58 7 -128q0 -163 -29 -232q-41 -101 -139 -139q-73 -29 -202 -29h-191v1365h172q142 0 195 -23q106 -45 145 -150q25 -65 25 -168q0 -149 -39 -224q-22 -42 -83 -81zM273 177h18q93 0 126 38q35 40 35 184q0 104 -13 143
q-15 45 -51 63q-32 16 -97 16h-18v-444zM273 799h27q88 0 116 50q18 33 18 159q0 78 -12 116q-21 64 -122 64h-27v-389z" />
    <glyph glyph-name="C" unicode="C" horiz-adv-x="696" vert-adv-y="1731" 
d="M429 485h190q5 -99 5 -143q0 -363 -276 -363q-269 0 -269 327v753q0 327 269 327q276 0 276 -356q0 -39 -4 -108h-191q4 57 4 93q0 100 -10 135q-17 59 -75 59q-45 0 -63 -32q-15 -27 -15 -118v-753q0 -90 15 -118q17 -32 63 -32q52 0 69 42q16 40 16 141q0 55 -4 146z
" />
    <glyph glyph-name="D" unicode="D" horiz-adv-x="702" vert-adv-y="1731" 
d="M82 1365h204q331 12 337 -314v-737q-6 -326 -337 -314h-204v1365zM273 177h24q84 0 113 37q21 28 22 100v737q-1 82 -34 111q-30 25 -101 26h-24v-1011z" />
    <glyph glyph-name="E" unicode="E" horiz-adv-x="602" vert-adv-y="1731" 
d="M82 1365h460v-177h-269v-384h189v-177h-189v-450h286v-177h-477v1365z" />
    <glyph glyph-name="F" unicode="F" horiz-adv-x="569" vert-adv-y="1731" 
d="M82 1365h460v-177h-269v-384h189v-177h-189v-627h-191v1365z" />
    <glyph glyph-name="G" unicode="G" horiz-adv-x="703" vert-adv-y="1731" 
d="M620 694v-694h-102l-30 94q-78 -114 -176 -114q-86 0 -152 65q-57 56 -73 149q-8 47 -8 142v723q0 327 269 327q276 0 276 -356q0 -37 -4 -108h-190q3 56 3 92q0 101 -10 136q-17 59 -75 59q-46 0 -63 -32q-15 -28 -15 -118v-723q0 -110 13 -137q21 -42 64 -42
q48 0 70 48q12 28 12 131v197h-84v161h275z" />
    <glyph glyph-name="H" unicode="H" horiz-adv-x="700" vert-adv-y="1731" 
d="M428 627h-155v-627h-191v1365h191v-561h155v561h191v-1365h-191v627z" />
    <glyph glyph-name="I" unicode="I" horiz-adv-x="355" vert-adv-y="1731" 
d="M273 1365v-1365h-191v1365h191z" />
    <glyph glyph-name="J" unicode="J" horiz-adv-x="414" vert-adv-y="1731" 
d="M140 1365h191v-1038q0 -94 -4 -133t-16 -70q-45 -104 -173 -119q-45 -5 -118 -5v189h15q54 0 78 20q27 24 27 97v1059z" />
    <glyph glyph-name="K" unicode="K" horiz-adv-x="736" vert-adv-y="1731" 
d="M482 904l213 -904h-199l-140 646l-83 -225v-421h-191v1365h191v-514l187 514h194z" />
    <glyph glyph-name="L" unicode="L" horiz-adv-x="576" vert-adv-y="1731" 
d="M82 0v1365h191v-1187h269v-178h-460z" />
    <glyph glyph-name="M" unicode="M" horiz-adv-x="889" vert-adv-y="1731" 
d="M443 685l134 680h230v-1365h-164v964l-159 -964h-83l-159 964v-964h-160v1365h226z" />
    <glyph glyph-name="N" unicode="N" horiz-adv-x="770" vert-adv-y="1731" 
d="M688 1365v-1365h-191l-224 716v-716h-191v1365h165l250 -804v804h191z" />
    <glyph glyph-name="O" unicode="O" horiz-adv-x="699" vert-adv-y="1731" 
d="M620 1019v-671q0 -137 -11 -179q-26 -106 -121 -156q-63 -33 -138 -33q-94 0 -165 48q-84 58 -101 169q-5 34 -5 151v671q0 137 11 178q26 106 121 155q63 33 139 33q93 0 164 -48q84 -57 101 -167q5 -34 5 -151zM429 268v829q0 55 -14 77q-22 34 -66 34q-43 0 -65 -34
q-14 -22 -14 -77v-829q0 -55 14 -77q22 -34 65 -34q44 0 65 34q15 23 15 77z" />
    <glyph glyph-name="P" unicode="P" horiz-adv-x="673" vert-adv-y="1731" 
d="M82 1365h181q163 0 220 -35q72 -43 109 -141q26 -69 26 -231q0 -169 -24 -234q-61 -170 -295 -170h-26v-554h-191v1365zM273 732h27q88 0 115 50q19 35 19 178q0 151 -23 185q-30 43 -111 43h-27v-456z" />
    <glyph glyph-name="Q" unicode="Q" horiz-adv-x="699" vert-adv-y="1731" 
d="M598 132q19 -27 58 -42v-187q-11 -1 -17 -1q-74 0 -134 41q-28 20 -52 54q-50 -17 -104 -17q-93 0 -164 48q-84 58 -101 169q-5 34 -5 151v671q0 137 11 178q26 106 121 155q63 33 139 33q93 0 164 -48q84 -57 101 -167q5 -34 5 -151v-671q0 -138 -10 -176
q-6 -24 -12 -40zM429 268v829q0 55 -14 77q-22 34 -66 34q-43 0 -65 -34q-14 -22 -14 -77v-829q0 -55 14 -77q22 -34 65 -34q44 0 65 34q15 23 15 77z" />
    <glyph glyph-name="R" unicode="R" horiz-adv-x="714" vert-adv-y="1731" 
d="M82 1365h187q153 0 216 -39q134 -83 134 -340q0 -134 -21 -205q-17 -54 -76 -129l134 -652h-205l-109 587q-37 -6 -69 -7v-580h-191v1365zM273 771h27q87 0 115 50q18 32 18 186q0 106 -23 138q-30 43 -110 43h-27v-417z" />
    <glyph glyph-name="S" unicode="S" horiz-adv-x="664" vert-adv-y="1731" 
d="M55 394l188 10q-2 -76 0 -117q7 -131 97 -131q86 0 86 136q0 67 -32 137q-21 45 -85 131l-94 140q-76 114 -109 189q-45 103 -45 202q0 130 70 208q77 87 210 87q136 0 204 -98q54 -76 56 -202v-69l-187 -19q0 89 -5 125q-12 86 -79 86q-80 0 -80 -128q0 -72 33 -133
q20 -37 101 -159l96 -141q137 -200 137 -385q0 -110 -47 -180q-69 -104 -230 -104q-152 0 -228 104q-41 55 -52 117q-8 50 -8 122q0 33 3 72z" />
    <glyph glyph-name="T" unicode="T" horiz-adv-x="583" vert-adv-y="1731" 
d="M193 0v1188h-179v177h556v-177h-186v-1188h-191z" />
    <glyph glyph-name="U" unicode="U" horiz-adv-x="705" vert-adv-y="1731" 
d="M273 1365v-1097q0 -54 14 -77q22 -34 65 -34q44 0 66 34q14 22 14 77v1097h191v-1019q0 -137 -11 -178q-26 -106 -121 -155q-62 -33 -138 -33q-94 0 -165 48q-84 57 -101 167q-5 34 -5 151v1019h191z" />
    <glyph glyph-name="V" unicode="V" horiz-adv-x="648" vert-adv-y="1731" 
d="M422 0h-189l-206 1365h188l115 -830l110 830h180z" />
    <glyph glyph-name="W" unicode="W" horiz-adv-x="955" vert-adv-y="1731" 
d="M215 0l-174 1365h174l97 -775l92 775h150l91 -804l95 804h175l-175 -1365h-165l-99 734l-92 -734h-169z" />
    <glyph glyph-name="X" unicode="X" horiz-adv-x="716" vert-adv-y="1731" 
d="M246 713l-188 652h192l113 -422l111 422h184l-188 -652l205 -713h-205l-112 452l-112 -452h-205z" />
    <glyph glyph-name="Y" unicode="Y" horiz-adv-x="670" vert-adv-y="1731" 
d="M239 568l-212 797h206l104 -503l105 503h200l-212 -797v-568h-191v568z" />
    <glyph glyph-name="Z" unicode="Z" horiz-adv-x="640" vert-adv-y="1731" 
d="M55 0v177l340 1011h-302v177h493v-177l-340 -1011h340v-177h-531z" />
    <glyph glyph-name="bracketleft" unicode="[" horiz-adv-x="559" vert-adv-y="1731" 
d="M425 1365v-177h-111v-1232h111v-177h-278v1586h278z" />
    <glyph glyph-name="backslash" unicode="\" horiz-adv-x="638" vert-adv-y="1731" 
d="M604 -137h-122l-434 1502h128z" />
    <glyph glyph-name="bracketright" unicode="]" horiz-adv-x="559" vert-adv-y="1731" 
d="M134 1365h278v-1586h-278v177h111v1232h-111v177z" />
    <glyph glyph-name="asciicircum" unicode="^" vert-adv-y="1731" 
d="M234 755h-177l346 615h218l346 -615h-178l-278 483z" />
    <glyph glyph-name="underscore" unicode="_" vert-adv-y="1731" 
d="M0 -140h1024v-122h-1024v122z" />
    <glyph glyph-name="grave" unicode="`" vert-adv-y="1731" 
d="M604 1184h-144l-148 153h198z" />
    <glyph glyph-name="a" unicode="a" horiz-adv-x="628" vert-adv-y="1731" 
d="M565 0h-184q-8 31 -12 83q-65 -97 -151 -97q-156 0 -156 257q0 121 49 203q45 77 169 156q62 41 89 59v114q0 55 -7 69q-13 23 -48 23q-47 0 -61 -46q-8 -27 -12 -103h-172q12 144 46 205q60 108 202 108q108 0 169 -64q60 -61 60 -179v-624q1 -107 19 -164zM369 521
q-78 -64 -106 -127q-24 -53 -24 -134q0 -109 55 -109q39 0 75 54v316z" />
    <glyph glyph-name="b" unicode="b" horiz-adv-x="634" vert-adv-y="1731" 
d="M76 0v1365h177v-444q96 110 172 110q41 0 78 -28q39 -31 49 -94q6 -35 6 -118v-565q0 -136 -28 -181q-16 -28 -51 -45q-28 -14 -55 -14q-76 0 -171 110v-96h-177zM253 191q49 -41 82 -41q46 0 46 76v565q0 76 -46 76q-33 0 -82 -41v-635z" />
    <glyph glyph-name="c" unicode="c" horiz-adv-x="613" vert-adv-y="1731" 
d="M558 661h-177v41v45q0 67 -12 89q-17 32 -56 32q-64 0 -64 -105v-509q0 -105 64 -105q39 0 56 32q12 22 12 89v45v58h177q3 -87 3 -108q0 -119 -47 -186q-64 -93 -203 -93q-117 0 -184 86q-55 69 -55 201v471q0 132 55 202q67 85 184 85q139 0 203 -93q47 -67 47 -182
q0 -20 -3 -95z" />
    <glyph glyph-name="d" unicode="d" horiz-adv-x="634" vert-adv-y="1731" 
d="M557 0h-173l-4 96q-95 -110 -171 -110q-41 0 -78 28q-40 31 -50 94q-6 35 -6 118v565q0 135 28 181q16 28 51 45q27 14 54 14q76 0 172 -110v444h177v-1365zM380 826q-49 41 -82 41q-46 0 -46 -76v-565q0 -76 46 -76q33 0 82 41v635z" />
    <glyph glyph-name="e" unicode="e" horiz-adv-x="634" vert-adv-y="1731" 
d="M381 356h177q3 -74 3 -95q0 -115 -47 -182q-64 -93 -203 -93q-117 0 -184 86q-55 69 -55 201v473q0 135 54 204q63 81 195 81q109 0 173 -69q64 -68 64 -185v-299h-309v-224q0 -105 65 -105q39 0 55 32q13 24 12 89v45v41zM249 620h132v172q0 75 -66 75t-66 -75v-172z
" />
    <glyph glyph-name="f" unicode="f" horiz-adv-x="384" vert-adv-y="1731" 
d="M103 0v853h-81v164h81v120q0 112 41 163q53 68 158 68q29 0 68 -3v-164q-14 1 -25 1q-65 0 -65 -65v-120h90v-164h-90v-853h-177z" />
    <glyph glyph-name="g" unicode="g" horiz-adv-x="625" vert-adv-y="1731" 
d="M619 1031v-168q-26 9 -42 9q-25 0 -55 -19v-29v-41v-248q0 -117 -43 -184q-58 -91 -168 -91q-20 0 -47 2q-51 -11 -51 -49q0 -37 46 -55q23 -9 161 -27q98 -13 153 -73q57 -62 57 -159q0 -115 -84 -189q-83 -73 -230 -73q-122 0 -200 43q-43 25 -67 72q-16 33 -16 70
q0 101 152 178q-55 18 -80 37q-41 30 -41 83q0 96 121 167q-100 69 -101 218v295q0 103 56 164q62 67 162 67q115 0 183 -95q49 88 134 95zM366 498v295q0 76 -63 76t-63 -76v-295q0 -76 63 -76t63 76zM298 -15q-40 -22 -55 -36q-33 -30 -33 -71q0 -32 20 -55
q32 -36 100 -36q77 0 112 43q21 25 21 60q0 51 -43 70q-19 9 -67.5 18.5t-54.5 6.5z" />
    <glyph glyph-name="h" unicode="h" horiz-adv-x="635" vert-adv-y="1731" 
d="M76 0v1365h177v-444q96 110 171 110q41 0 78 -28q40 -31 50 -94q6 -35 6 -118v-791h-177v791q0 76 -46 76q-33 0 -82 -41v-826h-177z" />
    <glyph glyph-name="i" unicode="i" horiz-adv-x="330" vert-adv-y="1731" 
d="M253 1017v-1017h-177v1017h177zM253 1365v-182h-177v182h177z" />
    <glyph glyph-name="j" unicode="j" horiz-adv-x="336" vert-adv-y="1731" 
d="M259 1017v-1017q0 -139 -11 -186q-33 -149 -195 -149q-39 0 -84 14v169q22 -6 36 -6q33 0 53 19q16 16 21 50q3 21 3 89v1017h177zM259 1365v-182h-177v182h177z" />
    <glyph glyph-name="k" unicode="k" horiz-adv-x="628" vert-adv-y="1731" 
d="M424 692l169 -692h-176l-106 493l-58 -140v-353h-177v1365h177v-740l136 392h166z" />
    <glyph glyph-name="l" unicode="l" horiz-adv-x="330" vert-adv-y="1731" 
d="M76 0v1365h177v-1365h-177z" />
    <glyph glyph-name="m" unicode="m" horiz-adv-x="939" vert-adv-y="1731" 
d="M76 0v1017h173l4 -96q43 50 71 71q52 39 105 39q48 0 80 -30q23 -22 44 -80q71 110 166 110q79 0 115 -58q21 -35 24 -81q4 -42 4 -101v-791h-177v791q0 76 -49 76q-31 0 -79 -41v-826h-177v791q0 76 -46 76q-32 0 -81 -41v-826h-177z" />
    <glyph glyph-name="n" unicode="n" horiz-adv-x="635" vert-adv-y="1731" 
d="M76 1017h173l4 -88q99 102 171 102q41 0 78 -27q40 -30 50 -92q6 -34 6 -114v-798h-177v791q0 76 -46 76q-33 0 -82 -41v-826h-177v1017z" />
    <glyph glyph-name="o" unicode="o" horiz-adv-x="631" vert-adv-y="1731" 
d="M558 744v-471q0 -287 -243 -287t-243 287v471q0 287 243 287t243 -287zM249 773v-529q0 -94 66 -94t66 94v529q0 94 -66 94t-66 -94z" />
    <glyph glyph-name="p" unicode="p" horiz-adv-x="634" vert-adv-y="1731" 
d="M76 1017h173l4 -96q96 110 171 110q41 0 78 -28q40 -31 50 -94q6 -35 6 -118v-565q0 -135 -28 -181q-16 -28 -51 -45q-27 -14 -54 -14q-76 0 -172 110v-444h-177v1365zM253 191q49 -41 82 -41q46 0 46 76v565q0 76 -46 76q-33 0 -82 -41v-635z" />
    <glyph glyph-name="q" unicode="q" horiz-adv-x="634" vert-adv-y="1731" 
d="M557 1017v-1365h-177v444q-96 -110 -172 -110q-41 0 -78 28q-39 31 -49 94q-6 35 -6 118v565q0 136 28 181q16 28 51 45q28 14 55 14q75 0 171 -110l4 96h173zM380 826q-49 41 -82 41q-46 0 -46 -76v-565q0 -76 46 -76q33 0 82 41v635z" />
    <glyph glyph-name="r" unicode="r" horiz-adv-x="436" vert-adv-y="1731" 
d="M76 1017h177v-127q71 147 182 141v-198q-46 8 -67 8q-115 0 -115 -151v-690h-177v1017z" />
    <glyph glyph-name="s" unicode="s" horiz-adv-x="561" vert-adv-y="1731" 
d="M522 773l-171 -11q0 25 -2 39q-7 66 -57 66q-59 0 -59 -96q0 -38 11 -69q13 -37 62 -88l71 -74q79 -83 116 -152q32 -60 32 -139q0 -101 -54 -173q-67 -90 -193 -90q-147 0 -212 119q-27 50 -27 127q0 12 2 27l173 11q-3 -18 -3 -32q0 -88 68 -88q38 0 57 33q12 22 12 55
q0 54 -29 99q-16 25 -75 87l-68 71q-117 122 -117 277q0 259 245 259q88 0 143 -46q65 -55 73 -158q2 -20 2 -54z" />
    <glyph glyph-name="t" unicode="t" horiz-adv-x="436" vert-adv-y="1731" 
d="M420 853h-126v-598q0 -93 87 -93q13 0 39 2v-164q-67 -14 -102 -14q-94 0 -149 51q-52 49 -52 157v659h-86v164h86v280h177v-280h126v-164z" />
    <glyph glyph-name="u" unicode="u" horiz-adv-x="635" vert-adv-y="1731" 
d="M558 0h-162l-15 88q-99 -102 -171 -102q-41 0 -78 27q-40 30 -50 92q-6 34 -6 114v798h177v-791q0 -76 46 -76q33 0 82 41v826h177v-1017z" />
    <glyph glyph-name="v" unicode="v" horiz-adv-x="578" vert-adv-y="1731" 
d="M543 1017l-171 -1017h-168l-170 1017h170l84 -586l84 586h171z" />
    <glyph glyph-name="w" unicode="w" horiz-adv-x="853" vert-adv-y="1731" 
d="M662 0h-137l-96 582l-100 -582h-134l-161 1017h161l80 -544l87 544h130l91 -554l79 554h157z" />
    <glyph glyph-name="x" unicode="x" horiz-adv-x="564" vert-adv-y="1731" 
d="M369 536l167 -536h-167l-89 324l-85 -324h-168l158 536l-145 481h166l73 -291l70 291h168z" />
    <glyph glyph-name="y" unicode="y" horiz-adv-x="582" vert-adv-y="1731" 
d="M548 1017l-186 -1155q-17 -105 -71 -156q-71 -68 -189 -68q-25 0 -54 5v172q12 -1 18 -1q59 0 92 30q35 31 35 121q0 70 -19 182l-140 870h174l81 -598l87 598h172z" />
    <glyph glyph-name="z" unicode="z" horiz-adv-x="558" vert-adv-y="1731" 
d="M504 164v-164h-449v151l263 702h-233v164h419v-152l-255 -701h255z" />
    <glyph glyph-name="braceleft" unicode="{" horiz-adv-x="641" vert-adv-y="1731" 
d="M263 570q65 -34 94 -102q19 -46 19 -137v-198q3 -100 20 -124q35 -67 175 -67v-163q-173 0 -223 16q-101 34 -131 141q-16 55 -16 145v226q0 102 -34 143q-34 39 -83 50v149q53 13 85 53q30 36 32 132v253q-2 150 70 215q46 45 117 55q56 8 183 8v-172q-91 -1 -141 -29
q-37 -23 -46 -68q-8 -28 -8 -87v-204q0 -108 -30 -159q-25 -43 -83 -76z" />
    <glyph glyph-name="bar" unicode="|" vert-adv-y="1731" 
d="M415 1365h193v-1706h-193v1706z" />
    <glyph glyph-name="braceright" unicode="}" horiz-adv-x="641" vert-adv-y="1731" 
d="M377 570q-63 35 -88 87q-25 53 -25 148v204q-2 89 -19 116q-35 67 -176 68v172q169 0 221 -17q150 -51 149 -261v-253q2 -96 32 -132q32 -40 85 -53v-149q-49 -11 -83 -50q-34 -41 -34 -143v-226q0 -166 -67 -235q-46 -49 -118 -60q-57 -6 -185 -7v163q88 0 139 27
q20 11 36 40q17 24 20 124v198q1 100 23 146q29 60 90 93z" />
    <glyph glyph-name="asciitilde" unicode="~" horiz-adv-x="1365" vert-adv-y="1731" 
d="M293 1175l-100 80q109 241 283 241q76 0 237 -78q96 -48 126 -56q31 -9 56 -9q100 0 181 148l100 -80q-104 -239 -302 -239q-31 0 -73 13q-41 13 -168 75q-107 52 -167 52q-91 0 -173 -147z" />
    <glyph glyph-name="uni0080" horiz-adv-x="1147" vert-adv-y="1731" 
d="M175 858q37 187 137 327q138 194 409 194q205 0 392 -133l-70 -168q-108 74 -171 99q-84 33 -164 33q-159 0 -250 -141q-56 -86 -80 -211h573l-47 -117h-546q-4 -38 -4 -74q0 -25 2 -45h496l-48 -117h-430q27 -146 105 -251q82 -110 235 -110q91 0 199 46q43 18 130 65
v-200q-146 -83 -332 -83q-447 0 -540 533h-163l46 117h104q-1 34 -1 50q0 33 4 69h-153l46 117h121z" />
    <glyph glyph-name="exclamdown" unicode="&#xa1;" horiz-adv-x="458" vert-adv-y="1731" 
d="M165 635h123l48 -983h-213zM134 1017h191v-205h-191v205z" />
    <glyph glyph-name="cent" unicode="&#xa2;" horiz-adv-x="696" vert-adv-y="1731" 
d="M431 176v-176h-140v174q-180 51 -174 280v471q1 117 35 172q51 85 139 107v161h140v-163q64 -18 101 -52q73 -69 73 -215q0 -23 -2 -93h-177v41v45q0 66 -12 89q-17 31 -56 31q-64 0 -64 -104v-509q0 -105 64 -105q39 0 56 32q12 22 12 89v45v58h177q2 -83 2 -106
q0 -225 -174 -272z" />
    <glyph glyph-name="sterling" unicode="&#xa3;" horiz-adv-x="696" vert-adv-y="1731" 
d="M360 799h171v-164h-141q4 -46 4 -80q0 -222 -101 -400q46 16 73 16q9 0 76 -10q24 -4 49 -4q64 0 139 34l46 -160q-63 -34 -93.5 -43t-86.5 -9q-65 0 -156 19q-52 11 -76 11q-41 0 -142 -29l-64 163q66 60 97 129q46 100 46 246q0 53 -6 117h-116v164h82q-6 25 -16 56
q-27 89 -35 120q-20 69 -20 132q0 101 58 176q36 46 96 75q60 28 123 28q85 0 157 -51q107 -75 107 -245q0 -30 -7 -71h-173q2 31 2 51q0 139 -86 139q-90 0 -90 -104q0 -38 12 -88q4 -17 55 -166q6 -17 16 -52z" />
    <glyph glyph-name="currency" unicode="&#xa4;" horiz-adv-x="823" vert-adv-y="1731" 
d="M565 929l81 80l95 -95l-85 -85q37 -69 37 -147q0 -72 -35 -141l87 -87l-105 -105l-82 82q-70 -43 -145 -43q-80 0 -152 45l-79 -78l-95 95l82 83q-39 72 -39 148q0 71 35 143l-87 87l105 105l82 -82q75 43 148 43q79 0 152 -48zM408 844q-55 0 -97 -43q-50 -51 -50 -119
q0 -60 36 -107q45 -57 114 -57q58 0 102 45q48 49 48 116q0 68 -41 113q-47 52 -112 52z" />
    <glyph glyph-name="yen" unicode="&#xa5;" horiz-adv-x="696" vert-adv-y="1731" 
d="M213 771l-157 594h195l99 -497l100 497h190l-158 -594h106v-164h-149v-607h-182v607h-148v164h104z" />
    <glyph glyph-name="brokenbar" unicode="&#xa6;" vert-adv-y="1731" 
d="M415 1365h193v-692h-193v692zM415 314h193v-655h-193v655z" />
    <glyph glyph-name="section" unicode="&#xa7;" horiz-adv-x="726" vert-adv-y="1731" 
d="M610 1079h-181q2 30 2 46q0 99 -65 99q-23 0 -39 -15.5t-16 -38.5q0 -30 40 -80l230 -307q63 -84 63 -180q0 -152 -129 -211l19 -25q60 -79 60 -173q0 -95 -70 -157q-67 -58 -177 -58q-160 0 -223 114q-33 59 -33 140q0 17 3 40h185q-3 -22 -3 -36q0 -95 67 -95
q32 0 48 25q10 16 10 38q0 31 -29 69l-198 261q-43 56 -68 108q-24 50 -24 108q0 140 140 205l-20 23q-78 90 -78 192q0 88 55 144q68 71 192 71q100 0 164 -56q78 -70 78 -192q0 -18 -3 -59zM325 819q-55 -29 -55 -73q0 -32 25 -65l114 -153q52 24 52 80q0 33 -35 79z" />
    <glyph glyph-name="dieresis" unicode="&#xa8;" vert-adv-y="1731" 
d="M468 1365v-182h-157v182h157zM714 1365v-182h-157v182h157z" />
    <glyph glyph-name="copyright" unicode="&#xa9;" horiz-adv-x="1597" vert-adv-y="1731" 
d="M839 575h130q3 -62 3 -91q0 -221 -175 -221q-171 0 -171 200v444q0 200 171 200q175 0 175 -217q0 -26 -3 -71h-130q3 38 3 63q0 57 -6 77q-9 30 -39 30q-24 0 -33 -16q-8 -14 -8 -66v-444q0 -52 8 -67q9 -15 33 -15q27 0 36 21t9 79q0 35 -3 94zM809 1390
q189 0 359 -104q170 -105 260 -282q77 -152 77 -322q0 -199 -104 -369t-280 -260q-152 -78 -322 -78q-198 0 -367 104q-170 104 -261 282q-78 151 -78 320q0 201 104 372q102 168 283 260q150 77 329 77zM793 1287q-160 0 -304 -89t-220 -241q-65 -129 -65 -274
q0 -251 176 -429q174 -176 419 -176q246 0 421 177q174 177 174 426q0 171 -87 318q-86 143 -237 222q-126 66 -277 66z" />
    <glyph glyph-name="ordfeminine" unicode="&#xaa;" horiz-adv-x="424" vert-adv-y="1731" 
d="M379 546h-131q-3 13 -7 35q-44 -43 -88 -43q-104 0 -104 158q0 117 91 187q12 10 71 46l28 18v63q0 31 -3 37q-5 11 -23 11q-23 0 -30 -23q-5 -16 -8 -65h-123q8 94 31 131q40 67 132 67q69 0 110 -39q40 -38 40 -111v-368q0 -64 14 -104zM239 845q-64 -55 -64 -140
q0 -56 26 -56q20 0 38 27v169z" />
    <glyph glyph-name="guillemotleft" unicode="&#xab;" horiz-adv-x="570" vert-adv-y="1731" 
d="M489 826v-245l-53 -69l53 -69v-245l-156 167v294zM238 812v-231l-53 -69l53 -69v-231l-156 153v294z" />
    <glyph glyph-name="logicalnot" unicode="&#xac;" vert-adv-y="1731" 
d="M767 0v405h-699v169h887v-574h-188z" />
    <glyph glyph-name="registered" unicode="&#xae;" horiz-adv-x="1570" vert-adv-y="1731" 
d="M617 1094h121q95 0 135 -24q85 -51 85 -207q0 -80 -13 -122q-11 -33 -45 -76l82 -390h-139l-66 345q-17 -2 -30 -2v-343h-130v819zM747 744h10q49 0 64 25q10 18 10 105q0 62 -13 79q-16 23 -61 23h-10v-232zM795 1390q189 0 359 -104q170 -105 260 -282q77 -152 77 -322
q0 -199 -104 -369t-280 -260q-152 -78 -322 -78q-198 0 -367 104q-170 104 -261 282q-78 151 -78 320q0 201 104 372q102 168 283 260q150 77 329 77zM779 1287q-160 0 -304 -89t-220 -241q-65 -129 -65 -274q0 -251 176 -429q174 -176 419 -176q246 0 421 177
q174 177 174 426q0 171 -87 318q-86 143 -237 222q-126 66 -277 66z" />
    <glyph glyph-name="macron" unicode="&#xaf;" vert-adv-y="1731" 
d="M0 1757h1024v-119h-1024v119z" />
    <glyph glyph-name="degree" unicode="&#xb0;" horiz-adv-x="753" vert-adv-y="1731" 
d="M381 1379q117 0 202 -94q75 -83 75 -200q0 -126 -85 -212q-83 -83 -195 -83q-126 0 -209 96q-73 84 -73 197q0 91 48 167q42 67 116 102q58 27 121 27zM373 1246q-54 0 -97 -43q-49 -51 -49 -119q0 -60 36 -107q44 -57 113 -57q58 0 102 45q48 49 48 116q0 68 -41 113
q-46 52 -112 52z" />
    <glyph glyph-name="plusminus" unicode="&#xb1;" horiz-adv-x="696" vert-adv-y="1731" 
d="M621 274v-135h-545v135h545zM621 732v-135h-199v-219h-149v219h-197v135h197v222h149v-222h199z" />
    <glyph glyph-name="uni00B2" unicode="&#xb2;" horiz-adv-x="471" vert-adv-y="1731" 
d="M399 547h-336v101q32 56 122 233q62 120 77 177t15 111q0 47 -7 68q-8 22 -29 22q-29 0 -37 -39q-5 -29 -6 -103h-126q-1 28 -1 43q0 87 32 141q45 76 145 76q83 0 124 -55q35 -49 35 -125q0 -121 -61 -267q-33 -79 -135 -251l-8 -14h196v-118z" />
    <glyph glyph-name="uni00B3" unicode="&#xb3;" horiz-adv-x="471" vert-adv-y="1731" 
d="M67 790h130q-1 -28 -1 -37q0 -38 4 -60q8 -41 38 -41q19 0 27 16q7 16 7 59v110q0 81 -73 81q-9 0 -23 -1v118q89 -4 96 79v107q0 38 -32 38q-20 0 -28 -10q-10 -12 -10 -70q0 -13 1 -41h-125q-1 26 -1 38q0 201 160 201q80 0 122 -53q37 -47 37 -153t-15 -142
q-9 -23 -40 -46q36 -16 49 -43q16 -33 16 -181q0 -119 -41 -170q-45 -55 -134 -55q-166 0 -166 200q0 23 2 56z" />
    <glyph glyph-name="acute" unicode="&#xb4;" vert-adv-y="1731" 
d="M407 1184l93 153h199l-148 -153h-144z" />
    <glyph glyph-name="mu1" unicode="&#xb5;" horiz-adv-x="635" vert-adv-y="1731" 
d="M381 1017h177v-1017h-162l-13 74q-20 -88 -76 -88q-45 0 -54 48v-382h-177v1365h177v-753q0 -84 14 -107q17 -27 46 -27q47 0 68 61v826z" />
    <glyph glyph-name="paragraph" unicode="&#xb6;" horiz-adv-x="856" vert-adv-y="1731" 
d="M387 -205v859q-84 4 -161 56q-64 44 -103 120q-41 82 -41 176q0 124 66 221q95 138 280 138h353v-61h-82v-1509h-98v1509h-114v-1509h-100z" />
    <glyph glyph-name="periodcentered" unicode="&#xb7;" horiz-adv-x="382" vert-adv-y="1731" 
d="M96 423v205h191v-205h-191z" />
    <glyph glyph-name="cedilla" unicode="&#xb8;" vert-adv-y="1731" 
d="M592 -95v-139l-44 -114h-98l36 114h-54v139h160z" />
    <glyph glyph-name="uni00B9" unicode="&#xb9;" horiz-adv-x="471" vert-adv-y="1731" 
d="M177 546v649h-61v91q66 34 111 79h84v-819h-134z" />
    <glyph glyph-name="ordmasculine" unicode="&#xba;" horiz-adv-x="427" vert-adv-y="1731" 
d="M372 992v-278q0 -176 -159 -176t-159 176v278q0 176 159 176t159 -176zM180 1009v-312q0 -49 33 -49t33 49v312q0 49 -33 49t-33 -49z" />
    <glyph glyph-name="guillemotright" unicode="&#xbb;" horiz-adv-x="570" vert-adv-y="1731" 
d="M82 826l156 -167v-294l-156 -167v245l53 69l-53 69v245zM333 812l156 -153v-294l-156 -153v231l53 69l-53 69v231z" />
    <glyph glyph-name="onequarter" unicode="&#xbc;" horiz-adv-x="1116" vert-adv-y="1731" 
d="M177 546v649h-61v91q66 34 111 79h84v-819h-134zM314 -68l386 1502h101l-393 -1502h-94zM878 0v180h-195v113l197 526h132v-521h47v-118h-47v-180h-134zM884 291v309l-100 -309h100z" />
    <glyph glyph-name="onehalf" unicode="&#xbd;" horiz-adv-x="1116" vert-adv-y="1731" 
d="M177 546v649h-61v91q66 34 111 79h84v-819h-134zM314 -68l386 1502h101l-393 -1502h-94zM1043 0h-336v101q29 51 122 233q62 121 77 177q15 58 15 112q0 47 -7 68q-8 22 -29 22q-29 0 -36 -39q-6 -29 -7 -103h-126q-1 29 -1 43q0 87 32 141q45 76 145 76q83 0 124 -55
q35 -48 35 -125q0 -121 -61 -267q-34 -81 -135 -252l-8 -14h196v-118z" />
    <glyph glyph-name="threequarters" unicode="&#xbe;" horiz-adv-x="1116" vert-adv-y="1731" 
d="M67 790h130q-1 -28 -1 -37q0 -38 4 -60q8 -41 38 -41q19 0 27 16q6 14 6 59v110q0 81 -72 81q-9 0 -23 -1v118q91 -4 95 79v107q0 38 -31 38q-20 0 -28 -10q-10 -12 -10 -70q0 -13 1 -41h-125q-1 26 -1 38q0 201 159 201q80 0 123 -53q37 -47 37 -153t-15 -142
q-9 -23 -40 -46q36 -16 49 -43q15 -30 15 -186q0 -115 -41 -165q-44 -55 -133 -55q-166 0 -166 200q0 23 2 56zM314 -68l386 1502h101l-393 -1502h-94zM878 0v180h-195v113l197 526h132v-521h47v-118h-47v-180h-134zM884 291v308l-100 -308h100z" />
    <glyph glyph-name="questiondown" unicode="&#xbf;" horiz-adv-x="666" vert-adv-y="1731" 
d="M411 642v-217q0 -98 -3 -134q-5 -57 -33 -130q-16 -44 -61 -149q-48 -112 -48 -146q0 -27 23 -44q18 -14 40 -14q55 0 96 129l159 -55q-60 -244 -265 -244q-122 0 -189 83q-51 63 -51 156q0 55 21 116q9 24 102 203q36 68 45 144q6 46 6 141v161h158zM429 1017v-205h-191
v205h191z" />
    <glyph glyph-name="Agrave" unicode="&#xc0;" horiz-adv-x="720" vert-adv-y="1731" 
d="M273 307l-34 -307h-184l186 1365h247l178 -1365h-188l-34 307h-171zM424 484l-66 634l-65 -634h131zM452 1475h-144l-148 153h198z" />
    <glyph glyph-name="Aacute" unicode="&#xc1;" horiz-adv-x="720" vert-adv-y="1731" 
d="M273 307l-34 -307h-184l186 1365h247l178 -1365h-188l-34 307h-171zM424 484l-66 634l-65 -634h131zM256 1475l93 153h199l-148 -153h-144z" />
    <glyph glyph-name="Acircumflex" unicode="&#xc2;" horiz-adv-x="720" vert-adv-y="1731" 
d="M273 307l-34 -307h-184l186 1365h247l178 -1365h-188l-34 307h-171zM424 484l-66 634l-65 -634h131zM172 1474l92 156h193l92 -156h-143l-45 53l-46 -53h-143z" />
    <glyph glyph-name="Atilde" unicode="&#xc3;" horiz-adv-x="720" vert-adv-y="1731" 
d="M273 307l-34 -307h-184l186 1365h247l178 -1365h-188l-34 307h-171zM424 484l-66 634l-65 -634h131zM193 1470v141q45 31 96 31q35 0 74 -17q56 -23 84 -23q31 0 81 35v-142q-50 -35 -81 -35q-28 0 -84 23q-39 17 -74 17q-51 0 -96 -30z" />
    <glyph glyph-name="Adieresis" unicode="&#xc4;" horiz-adv-x="720" vert-adv-y="1731" 
d="M273 307l-34 -307h-184l186 1365h247l178 -1365h-188l-34 307h-171zM424 484l-66 634l-65 -634h131zM306 1656v-182h-157v182h157zM572 1656v-182h-157v182h157z" />
    <glyph glyph-name="Aring" unicode="&#xc5;" horiz-adv-x="720" vert-adv-y="1731" 
d="M362 1705q59 0 105 -42q44 -40 44 -99q0 -61 -44 -102q-44 -42 -106 -42t-107 42q-44 42 -44 101q0 61 44 100q47 42 108 42zM360 1634q-30 0 -53 -21q-22 -20 -22 -50t22 -51q23 -21 54 -21t53 21t22 51t-22 50q-23 21 -54 21zM273 307l-34 -307h-184l186 1365h247
l178 -1365h-188l-34 307h-171zM424 484l-66 634l-65 -634h131z" />
    <glyph glyph-name="AE" unicode="&#xc6;" horiz-adv-x="1006" vert-adv-y="1731" 
d="M481 307h-195l-72 -307h-194l345 1365h578v-177h-270v-384h191v-177h-191v-450h289v-177h-481v307zM482 484v647l-155 -647h155z" />
    <glyph glyph-name="Ccedilla" unicode="&#xc7;" horiz-adv-x="696" vert-adv-y="1731" 
d="M431 -95v-139l-45 -114h-97l36 114h-54v139h160zM429 485h190q5 -99 5 -143q0 -363 -276 -363q-269 0 -269 327v753q0 327 269 327q276 0 276 -356q0 -39 -4 -108h-191q4 57 4 93q0 100 -10 135q-17 59 -75 59q-45 0 -63 -32q-15 -27 -15 -118v-753q0 -90 15 -118
q17 -32 63 -32q52 0 69 42q16 40 16 141q0 55 -4 146z" />
    <glyph glyph-name="Egrave" unicode="&#xc8;" horiz-adv-x="602" vert-adv-y="1731" 
d="M82 1365h460v-177h-269v-384h189v-177h-189v-450h286v-177h-477v1365zM393 1475h-144l-148 153h198z" />
    <glyph glyph-name="Eacute" unicode="&#xc9;" horiz-adv-x="602" vert-adv-y="1731" 
d="M82 1365h460v-177h-269v-384h189v-177h-189v-450h286v-177h-477v1365zM196 1475l93 153h199l-148 -153h-144z" />
    <glyph glyph-name="Ecircumflex" unicode="&#xca;" horiz-adv-x="602" vert-adv-y="1731" 
d="M82 1365h460v-177h-269v-384h189v-177h-189v-450h286v-177h-477v1365zM113 1474l92 156h193l92 -156h-143l-45 53l-46 -53h-143z" />
    <glyph glyph-name="Edieresis" unicode="&#xcb;" horiz-adv-x="602" vert-adv-y="1731" 
d="M82 1365h460v-177h-269v-384h189v-177h-189v-450h286v-177h-477v1365zM247 1656v-182h-157v182h157zM513 1656v-182h-157v182h157z" />
    <glyph glyph-name="Igrave" unicode="&#xcc;" horiz-adv-x="355" vert-adv-y="1731" 
d="M273 1365v-1365h-191v1365h191zM269 1475h-144l-148 153h198z" />
    <glyph glyph-name="Iacute" unicode="&#xcd;" horiz-adv-x="355" vert-adv-y="1731" 
d="M273 1365v-1365h-191v1365h191zM73 1475l93 153h199l-148 -153h-144z" />
    <glyph glyph-name="Icircumflex" unicode="&#xce;" horiz-adv-x="355" vert-adv-y="1731" 
d="M273 1365v-1365h-191v1365h191zM-11 1474l92 156h193l92 -156h-143l-45 53l-46 -53h-143z" />
    <glyph glyph-name="Idieresis" unicode="&#xcf;" horiz-adv-x="355" vert-adv-y="1731" 
d="M273 1365v-1365h-191v1365h191zM137 1656v-182h-157v182h157zM376 1656v-182h-157v182h157z" />
    <glyph glyph-name="Eth" unicode="&#xd0;" horiz-adv-x="702" vert-adv-y="1731" 
d="M82 804v561h204q330 12 336 -314v-737q-6 -326 -336 -314h-204v627h-70v177h70zM273 804h64v-177h-64v-450h24q84 0 112 37q21 28 22 100v737q-1 82 -34 111q-30 25 -100 26h-24v-384z" />
    <glyph glyph-name="Ntilde" unicode="&#xd1;" horiz-adv-x="770" vert-adv-y="1731" 
d="M688 1365v-1365h-191l-224 716v-716h-191v1365h165l250 -804v804h191zM218 1470v141q45 31 96 31q35 0 74 -17q56 -23 84 -23q31 0 81 35v-142q-50 -35 -81 -35q-28 0 -84 23q-39 17 -74 17q-51 0 -96 -30z" />
    <glyph glyph-name="Ograve" unicode="&#xd2;" horiz-adv-x="699" vert-adv-y="1731" 
d="M620 1019v-671q0 -137 -11 -179q-26 -106 -121 -156q-63 -33 -138 -33q-94 0 -165 48q-84 58 -101 169q-5 34 -5 151v671q0 137 11 178q26 106 121 155q63 33 139 33q93 0 164 -48q84 -57 101 -167q5 -34 5 -151zM429 268v829q0 55 -14 77q-22 34 -66 34q-43 0 -65 -34
q-14 -22 -14 -77v-829q0 -55 14 -77q22 -34 65 -34q44 0 65 34q15 23 15 77zM441 1475h-144l-148 153h198z" />
    <glyph glyph-name="Oacute" unicode="&#xd3;" horiz-adv-x="699" vert-adv-y="1731" 
d="M620 1019v-671q0 -137 -11 -179q-26 -106 -121 -156q-63 -33 -138 -33q-94 0 -165 48q-84 58 -101 169q-5 34 -5 151v671q0 137 11 178q26 106 121 155q63 33 139 33q93 0 164 -48q84 -57 101 -167q5 -34 5 -151zM429 268v829q0 55 -14 77q-22 34 -66 34q-43 0 -65 -34
q-14 -22 -14 -77v-829q0 -55 14 -77q22 -34 65 -34q44 0 65 34q15 23 15 77zM245 1475l93 153h199l-148 -153h-144z" />
    <glyph glyph-name="Ocircumflex" unicode="&#xd4;" horiz-adv-x="699" vert-adv-y="1731" 
d="M620 1019v-671q0 -137 -11 -179q-26 -106 -121 -156q-63 -33 -138 -33q-94 0 -165 48q-84 58 -101 169q-5 34 -5 151v671q0 137 11 178q26 106 121 155q63 33 139 33q93 0 164 -48q84 -57 101 -167q5 -34 5 -151zM429 268v829q0 55 -14 77q-22 34 -66 34q-43 0 -65 -34
q-14 -22 -14 -77v-829q0 -55 14 -77q22 -34 65 -34q44 0 65 34q15 23 15 77zM161 1474l92 156h193l92 -156h-143l-45 53l-46 -53h-143z" />
    <glyph glyph-name="Otilde" unicode="&#xd5;" horiz-adv-x="699" vert-adv-y="1731" 
d="M620 1019v-671q0 -137 -11 -179q-26 -106 -121 -156q-63 -33 -138 -33q-94 0 -165 48q-84 58 -101 169q-5 34 -5 151v671q0 137 11 178q26 106 121 155q63 33 139 33q93 0 164 -48q84 -57 101 -167q5 -34 5 -151zM429 268v829q0 55 -14 77q-22 34 -66 34q-43 0 -65 -34
q-14 -22 -14 -77v-829q0 -55 14 -77q22 -34 65 -34q44 0 65 34q15 23 15 77zM182 1470v141q45 31 96 31q35 0 74 -17q56 -23 84 -23q31 0 81 35v-142q-50 -35 -81 -35q-28 0 -84 23q-39 17 -74 17q-51 0 -96 -30z" />
    <glyph glyph-name="Odieresis" unicode="&#xd6;" horiz-adv-x="699" vert-adv-y="1731" 
d="M620 1019v-671q0 -137 -11 -179q-26 -106 -121 -156q-63 -33 -138 -33q-94 0 -165 48q-84 58 -101 169q-5 34 -5 151v671q0 137 11 178q26 106 121 155q63 33 139 33q93 0 164 -48q84 -57 101 -167q5 -34 5 -151zM429 268v829q0 55 -14 77q-22 34 -66 34q-43 0 -65 -34
q-14 -22 -14 -77v-829q0 -55 14 -77q22 -34 65 -34q44 0 65 34q15 23 15 77zM295 1656v-182h-157v182h157zM561 1656v-182h-157v182h157z" />
    <glyph glyph-name="multiply" unicode="&#xd7;" horiz-adv-x="696" vert-adv-y="1731" 
d="M495 949l95 -96l-141 -141l155 -154l-106 -105l-154 154l-139 -139l-96 96l139 139l-157 157l105 105l158 -157z" />
    <glyph glyph-name="Oslash" unicode="&#xd8;" horiz-adv-x="699" vert-adv-y="1731" 
d="M177 34l-31 -99h-67l48 152q-18 27 -29 61q-18 56 -18 187v684q0 137 10 178q27 106 121 155q63 33 138 33q91 0 168 -50l30 95h73l-47 -150q24 -38 36 -82q10 -41 11 -179v-671q0 -137 -11 -179q-26 -106 -121 -156q-63 -33 -137 -33q-98 0 -174 54zM271 328v-60
q0 -55 14 -77q21 -34 65 -34q43 0 64 34q15 22 15 77v558zM271 547l158 506v44q0 55 -14 77q-22 34 -65 34q-44 0 -65 -34q-14 -23 -14 -77v-550z" />
    <glyph glyph-name="Ugrave" unicode="&#xd9;" horiz-adv-x="705" vert-adv-y="1731" 
d="M273 1365v-1097q0 -54 14 -77q22 -34 65 -34q44 0 66 34q14 22 14 77v1097h191v-1019q0 -137 -11 -178q-26 -106 -121 -155q-62 -33 -138 -33q-94 0 -165 48q-84 57 -101 167q-5 34 -5 151v1019h191zM444 1475h-144l-148 153h198z" />
    <glyph glyph-name="Uacute" unicode="&#xda;" horiz-adv-x="705" vert-adv-y="1731" 
d="M273 1365v-1097q0 -54 14 -77q22 -34 65 -34q44 0 66 34q14 22 14 77v1097h191v-1019q0 -137 -11 -178q-26 -106 -121 -155q-62 -33 -138 -33q-94 0 -165 48q-84 57 -101 167q-5 34 -5 151v1019h191zM248 1475l93 153h199l-148 -153h-144z" />
    <glyph glyph-name="Ucircumflex" unicode="&#xdb;" horiz-adv-x="705" vert-adv-y="1731" 
d="M273 1365v-1097q0 -54 14 -77q22 -34 65 -34q44 0 66 34q14 22 14 77v1097h191v-1019q0 -137 -11 -178q-26 -106 -121 -155q-62 -33 -138 -33q-94 0 -165 48q-84 57 -101 167q-5 34 -5 151v1019h191zM164 1474l92 156h193l92 -156h-143l-45 53l-46 -53h-143z" />
    <glyph glyph-name="Udieresis" unicode="&#xdc;" horiz-adv-x="705" vert-adv-y="1731" 
d="M273 1365v-1097q0 -54 14 -77q22 -34 65 -34q44 0 66 34q14 22 14 77v1097h191v-1019q0 -137 -11 -178q-26 -106 -121 -155q-62 -33 -138 -33q-94 0 -165 48q-84 57 -101 167q-5 34 -5 151v1019h191zM298 1656v-182h-157v182h157zM564 1656v-182h-157v182h157z" />
    <glyph glyph-name="Yacute" unicode="&#xdd;" horiz-adv-x="670" vert-adv-y="1731" 
d="M239 568l-212 797h206l104 -503l105 503h200l-212 -797v-568h-191v568zM230 1475l93 153h199l-148 -153h-144z" />
    <glyph glyph-name="Thorn" unicode="&#xde;" horiz-adv-x="673" vert-adv-y="1731" 
d="M82 1365h191v-163h23q129 0 188 -36q71 -44 108 -141q26 -69 26 -232q0 -167 -24 -233q-61 -170 -295 -170h-26v-390h-191v1365zM273 568h27q88 0 115 50q19 35 19 178q0 151 -23 185q-30 43 -111 43h-27v-456z" />
    <glyph glyph-name="germandbls" unicode="&#xdf;" horiz-adv-x="632" vert-adv-y="1731" 
d="M76 0v1040q0 120 12 171q41 168 223 168q128 0 186 -82q47 -67 47 -206v-54q0 -97 -6 -118q-16 -62 -79 -98q45 -13 66 -31q33 -30 34 -118v-340q0 -147 -13 -199q-25 -93 -90 -121q-61 -26 -110 -26q-12 0 -35 3v162q35 1 49 15q19 21 20 114v338q0 96 -22 113
q-15 10 -51 10v159q29 0 40 6q20 15 20 67v146q0 64 -15 84q-15 21 -42 21q-40 0 -49 -44q-6 -29 -6 -110v-1070h-179z" />
    <glyph glyph-name="agrave" unicode="&#xe0;" horiz-adv-x="628" vert-adv-y="1731" 
d="M565 0h-184q-8 31 -12 83q-65 -97 -151 -97q-156 0 -156 257q0 121 49 203q45 77 169 156q62 41 89 59v114q0 55 -7 69q-13 23 -48 23q-47 0 -61 -46q-8 -27 -12 -103h-172q12 144 46 205q60 108 202 108q108 0 169 -64q60 -61 60 -179v-624q1 -107 19 -164zM369 521
q-78 -64 -106 -127q-24 -53 -24 -134q0 -109 55 -109q39 0 75 54v316zM405 1184h-144l-148 153h198z" />
    <glyph glyph-name="aacute" unicode="&#xe1;" horiz-adv-x="628" vert-adv-y="1731" 
d="M565 0h-184q-8 31 -12 83q-65 -97 -151 -97q-156 0 -156 257q0 121 49 203q45 77 169 156q62 41 89 59v114q0 55 -7 69q-13 23 -48 23q-47 0 -61 -46q-8 -27 -12 -103h-172q12 144 46 205q60 108 202 108q108 0 169 -64q60 -61 60 -179v-624q1 -107 19 -164zM369 521
q-78 -64 -106 -127q-24 -53 -24 -134q0 -109 55 -109q39 0 75 54v316zM209 1184l93 153h199l-148 -153h-144z" />
    <glyph glyph-name="acircumflex" unicode="&#xe2;" horiz-adv-x="628" vert-adv-y="1731" 
d="M565 0h-184q-8 31 -12 83q-65 -97 -151 -97q-156 0 -156 257q0 121 49 203q45 77 169 156q62 41 89 59v114q0 55 -7 69q-13 23 -48 23q-47 0 -61 -46q-8 -27 -12 -103h-172q12 144 46 205q60 108 202 108q108 0 169 -64q60 -61 60 -179v-624q1 -107 19 -164zM369 521
q-78 -64 -106 -127q-24 -53 -24 -134q0 -109 55 -109q39 0 75 54v316zM125 1183l92 156h193l92 -156h-143l-45 53l-46 -53h-143z" />
    <glyph glyph-name="atilde" unicode="&#xe3;" horiz-adv-x="628" vert-adv-y="1731" 
d="M565 0h-184q-8 31 -12 83q-65 -97 -151 -97q-156 0 -156 257q0 121 49 203q45 77 169 156q62 41 89 59v114q0 55 -7 69q-13 23 -48 23q-47 0 -61 -46q-8 -27 -12 -103h-172q12 144 46 205q60 108 202 108q108 0 169 -64q60 -61 60 -179v-624q1 -107 19 -164zM369 521
q-78 -64 -106 -127q-24 -53 -24 -134q0 -109 55 -109q39 0 75 54v316zM146 1178v142q45 31 96 31q35 0 74 -17q56 -23 84 -23q32 0 81 35v-142q-50 -35 -81 -35q-28 0 -84 23q-39 17 -74 17q-51 0 -96 -31z" />
    <glyph glyph-name="adieresis" unicode="&#xe4;" horiz-adv-x="628" vert-adv-y="1731" 
d="M565 0h-184q-8 31 -12 83q-65 -97 -151 -97q-156 0 -156 257q0 121 49 203q45 77 169 156q62 41 89 59v114q0 55 -7 69q-13 23 -48 23q-47 0 -61 -46q-8 -27 -12 -103h-172q12 144 46 205q60 108 202 108q108 0 169 -64q60 -61 60 -179v-624q1 -107 19 -164zM369 521
q-78 -64 -106 -127q-24 -53 -24 -134q0 -109 55 -109q39 0 75 54v316zM269 1365v-182h-157v182h157zM515 1365v-182h-157v182h157z" />
    <glyph glyph-name="aring" unicode="&#xe5;" horiz-adv-x="628" vert-adv-y="1731" 
d="M565 0h-184q-8 31 -12 83q-65 -97 -151 -97q-156 0 -156 257q0 121 49 203q45 77 169 156q62 41 89 59v114q0 55 -7 69q-13 23 -48 23q-47 0 -61 -46q-8 -27 -12 -103h-172q12 144 46 205q60 108 202 108q108 0 169 -64q60 -61 60 -179v-624q1 -107 19 -164zM369 521
q-78 -64 -106 -127q-24 -53 -24 -134q0 -109 55 -109q39 0 75 54v316zM315 1429q59 0 105 -42q44 -39 44 -99q0 -61 -44 -102q-44 -42 -106 -42t-107 42q-44 42 -44 101q0 61 44 100q47 42 108 42zM313 1358q-30 0 -53 -21q-22 -20 -22 -50t22 -51q23 -21 54 -21t53 21
t22 51t-22 50q-23 21 -54 21z" />
    <glyph glyph-name="ae" unicode="&#xe6;" horiz-adv-x="930" vert-adv-y="1731" 
d="M677 356h177q3 -74 3 -95q0 -114 -47 -182q-64 -93 -208 -93q-81 0 -129 29q-29 18 -67 69q-50 -53 -85 -73q-44 -24 -93 -24q-78 0 -118 51q-49 62 -49 205q0 121 49 203q45 77 169 157q63 41 89 58v114q0 55 -7 69q-13 23 -48 23q-47 0 -61 -46q-8 -27 -12 -103h-172
q12 143 46 204q60 109 197 109q70 0 114 -34q14 -12 36 -36q28 32 51 45q41 25 107 25q106 0 171 -69q64 -68 64 -185v-299h-309v-224q0 -105 64 -105q40 0 56 32q13 23 12 89v45v41zM368 522q-78 -65 -106 -128q-24 -53 -24 -134q0 -108 58 -108q34 0 72 56v314zM545 620
h132v172q0 75 -66 75t-66 -75v-172z" />
    <glyph glyph-name="ccedilla" unicode="&#xe7;" horiz-adv-x="613" vert-adv-y="1731" 
d="M558 661h-177v41v45q0 67 -12 89q-17 32 -56 32q-64 0 -64 -105v-509q0 -105 64 -105q39 0 56 32q12 22 12 89v45v58h177q3 -87 3 -108q0 -119 -47 -186q-64 -93 -203 -93q-117 0 -184 86q-55 69 -55 201v471q0 132 55 202q67 85 184 85q139 0 203 -93q47 -67 47 -182
q0 -20 -3 -95zM396 -95v-139l-45 -114h-97l36 114h-54v139h160z" />
    <glyph glyph-name="egrave" unicode="&#xe8;" horiz-adv-x="634" vert-adv-y="1731" 
d="M381 356h177q3 -74 3 -95q0 -115 -47 -182q-64 -93 -203 -93q-117 0 -184 86q-55 69 -55 201v473q0 135 54 204q63 81 195 81q109 0 173 -69q64 -68 64 -185v-299h-309v-224q0 -105 65 -105q39 0 55 32q13 24 12 89v45v41zM249 620h132v172q0 75 -66 75t-66 -75v-172z
M408 1184h-144l-148 153h198z" />
    <glyph glyph-name="eacute" unicode="&#xe9;" horiz-adv-x="634" vert-adv-y="1731" 
d="M381 356h177q3 -74 3 -95q0 -115 -47 -182q-64 -93 -203 -93q-117 0 -184 86q-55 69 -55 201v473q0 135 54 204q63 81 195 81q109 0 173 -69q64 -68 64 -185v-299h-309v-224q0 -105 65 -105q39 0 55 32q13 24 12 89v45v41zM249 620h132v172q0 75 -66 75t-66 -75v-172z
M212 1184l93 153h199l-148 -153h-144z" />
    <glyph glyph-name="ecircumflex" unicode="&#xea;" horiz-adv-x="634" vert-adv-y="1731" 
d="M381 356h177q3 -74 3 -95q0 -115 -47 -182q-64 -93 -203 -93q-117 0 -184 86q-55 69 -55 201v473q0 135 54 204q63 81 195 81q109 0 173 -69q64 -68 64 -185v-299h-309v-224q0 -105 65 -105q39 0 55 32q13 24 12 89v45v41zM249 620h132v172q0 75 -66 75t-66 -75v-172z
M128 1183l92 156h193l92 -156h-143l-45 53l-46 -53h-143z" />
    <glyph glyph-name="edieresis" unicode="&#xeb;" horiz-adv-x="634" vert-adv-y="1731" 
d="M381 356h177q3 -74 3 -95q0 -115 -47 -182q-64 -93 -203 -93q-117 0 -184 86q-55 69 -55 201v473q0 135 54 204q63 81 195 81q109 0 173 -69q64 -68 64 -185v-299h-309v-224q0 -105 65 -105q39 0 55 32q13 24 12 89v45v41zM249 620h132v172q0 75 -66 75t-66 -75v-172z
M272 1365v-182h-157v182h157zM518 1365v-182h-157v182h157z" />
    <glyph glyph-name="igrave" unicode="&#xec;" horiz-adv-x="330" vert-adv-y="1731" 
d="M254 1017v-1017h-177v1017h177zM257 1184h-144l-148 153h198z" />
    <glyph glyph-name="iacute" unicode="&#xed;" horiz-adv-x="330" vert-adv-y="1731" 
d="M253 1017v-1017h-177v1017h177zM60 1184l93 153h199l-148 -153h-144z" />
    <glyph glyph-name="icircumflex" unicode="&#xee;" horiz-adv-x="330" vert-adv-y="1731" 
d="M254 1017v-1017h-177v1017h177zM-23 1183l92 156h193l92 -156h-143l-45 53l-46 -53h-143z" />
    <glyph glyph-name="idieresis" unicode="&#xef;" horiz-adv-x="330" vert-adv-y="1731" 
d="M254 1017v-1017h-177v1017h177zM135 1365v-182h-157v182h157zM353 1365v-182h-157v182h157z" />
    <glyph glyph-name="eth" unicode="&#xf0;" horiz-adv-x="631" vert-adv-y="1731" 
d="M367 1330l109 91l53 -62l-107 -91q138 -192 136 -460v-532q0 -125 -41 -191q-61 -99 -211 -99q-112 0 -173 73q-61 72 -61 217v463q0 130 42 200q28 45 82 71q39 18 80 18q49 0 110 -37q-30 127 -72 187l-92 -77l-53 63l96 80q-30 36 -60 62l90 88q33 -27 72 -64z
M249 771v-523q0 -95 66 -95t66 95v523q0 93 -66 93t-66 -93z" />
    <glyph glyph-name="ntilde" unicode="&#xf1;" horiz-adv-x="635" vert-adv-y="1731" 
d="M76 1017h173l4 -88q99 102 171 102q41 0 78 -27q40 -30 50 -92q6 -34 6 -114v-798h-177v791q0 76 -46 76q-33 0 -82 -41v-826h-177v1017zM149 1178v142q45 31 96 31q35 0 74 -17q56 -23 84 -23q32 0 81 35v-142q-50 -35 -81 -35q-28 0 -84 23q-39 17 -74 17
q-51 0 -96 -31z" />
    <glyph glyph-name="ograve" unicode="&#xf2;" horiz-adv-x="631" vert-adv-y="1731" 
d="M558 744v-471q0 -287 -243 -287t-243 287v471q0 287 243 287t243 -287zM249 773v-529q0 -94 66 -94t66 94v529q0 94 -66 94t-66 -94zM407 1184h-144l-148 153h198z" />
    <glyph glyph-name="oacute" unicode="&#xf3;" horiz-adv-x="631" vert-adv-y="1731" 
d="M558 744v-471q0 -287 -243 -287t-243 287v471q0 287 243 287t243 -287zM249 773v-529q0 -94 66 -94t66 94v529q0 94 -66 94t-66 -94zM210 1184l93 153h199l-148 -153h-144z" />
    <glyph glyph-name="ocircumflex" unicode="&#xf4;" horiz-adv-x="631" vert-adv-y="1731" 
d="M558 744v-471q0 -287 -243 -287t-243 287v471q0 287 243 287t243 -287zM249 773v-529q0 -94 66 -94t66 94v529q0 94 -66 94t-66 -94zM127 1183l92 156h193l92 -156h-143l-45 53l-46 -53h-143z" />
    <glyph glyph-name="otilde" unicode="&#xf5;" horiz-adv-x="631" vert-adv-y="1731" 
d="M558 744v-471q0 -287 -243 -287t-243 287v471q0 287 243 287t243 -287zM249 773v-529q0 -94 66 -94t66 94v529q0 94 -66 94t-66 -94zM148 1178v142q45 31 96 31q35 0 74 -17q56 -23 84 -23q32 0 81 35v-142q-50 -35 -81 -35q-28 0 -84 23q-39 17 -74 17q-51 0 -96 -31z
" />
    <glyph glyph-name="odieresis" unicode="&#xf6;" horiz-adv-x="631" vert-adv-y="1731" 
d="M558 744v-471q0 -287 -243 -287t-243 287v471q0 287 243 287t243 -287zM249 773v-529q0 -94 66 -94t66 94v529q0 94 -66 94t-66 -94zM271 1365v-182h-157v182h157zM517 1365v-182h-157v182h157z" />
    <glyph glyph-name="divide" unicode="&#xf7;" horiz-adv-x="696" vert-adv-y="1731" 
d="M621 776v-135h-545v135h545zM275 908v158h147v-158h-147zM275 349v158h147v-158h-147z" />
    <glyph glyph-name="oslash" unicode="&#xf8;" horiz-adv-x="631" vert-adv-y="1731" 
d="M185 17l-29 -90h-60l41 129q-8 8 -13 15q-50 65 -52 202v471q0 133 52 202q64 85 189 85q72 0 121 -25l33 106h67l-46 -145q9 -10 18 -21q50 -67 52 -202v-471q0 -287 -243 -287q-76 0 -130 31zM381 630l-131 -407q10 -73 65 -73q66 0 66 94v386zM249 417l127 402
q-15 48 -61 48q-66 0 -66 -94v-356z" />
    <glyph glyph-name="ugrave" unicode="&#xf9;" horiz-adv-x="635" vert-adv-y="1731" 
d="M558 0h-162l-15 88q-99 -102 -171 -102q-41 0 -78 27q-40 30 -50 92q-6 34 -6 114v798h177v-791q0 -76 46 -76q33 0 82 41v826h177v-1017zM409 1184h-144l-148 153h198z" />
    <glyph glyph-name="uacute" unicode="&#xfa;" horiz-adv-x="635" vert-adv-y="1731" 
d="M558 0h-162l-15 88q-99 -102 -171 -102q-41 0 -78 27q-40 30 -50 92q-6 34 -6 114v798h177v-791q0 -76 46 -76q33 0 82 41v826h177v-1017zM212 1184l93 153h199l-148 -153h-144z" />
    <glyph glyph-name="ucircumflex" unicode="&#xfb;" horiz-adv-x="635" vert-adv-y="1731" 
d="M558 0h-162l-15 88q-99 -102 -171 -102q-41 0 -78 27q-40 30 -50 92q-6 34 -6 114v798h177v-791q0 -76 46 -76q33 0 82 41v826h177v-1017zM129 1183l92 156h193l92 -156h-143l-45 53l-46 -53h-143z" />
    <glyph glyph-name="udieresis" unicode="&#xfc;" horiz-adv-x="635" vert-adv-y="1731" 
d="M558 0h-162l-15 88q-99 -102 -171 -102q-41 0 -78 27q-40 30 -50 92q-6 34 -6 114v798h177v-791q0 -76 46 -76q33 0 82 41v826h177v-1017zM273 1365v-182h-157v182h157zM519 1365v-182h-157v182h157z" />
    <glyph glyph-name="yacute" unicode="&#xfd;" horiz-adv-x="582" vert-adv-y="1731" 
d="M548 1017l-186 -1155q-17 -105 -71 -156q-71 -68 -189 -68q-25 0 -54 5v172q12 -1 18 -1q59 0 92 30q35 31 35 121q0 70 -19 182l-140 870h174l81 -598l87 598h172zM186 1184l93 153h199l-148 -153h-144z" />
    <glyph glyph-name="thorn" unicode="&#xfe;" horiz-adv-x="631" vert-adv-y="1731" 
d="M76 1365h177v-444q96 110 171 110q41 0 78 -28q40 -31 50 -94q6 -35 6 -118v-565q0 -135 -28 -181q-16 -28 -51 -45q-27 -14 -54 -14q-76 0 -172 110v-444h-177v1713zM253 191q49 -41 82 -41q46 0 46 76v565q0 76 -46 76q-33 0 -82 -41v-635z" />
    <glyph glyph-name="ydieresis" unicode="&#xff;" horiz-adv-x="582" vert-adv-y="1731" 
d="M548 1017l-186 -1155q-17 -105 -71 -156q-71 -68 -189 -68q-25 0 -54 5v172q12 -1 18 -1q59 0 92 30q35 31 35 121q0 70 -19 182l-140 870h174l81 -598l87 598h172zM246 1365v-182h-157v182h157zM492 1365v-182h-157v182h157z" />
    <glyph glyph-name="Cacute" unicode="&#x106;" horiz-adv-x="696" vert-adv-y="1731" 
d="M243 1475l93 153h199l-148 -153h-144zM429 485h190q5 -99 5 -143q0 -363 -276 -363q-269 0 -269 327v753q0 327 269 327q276 0 276 -356q0 -39 -4 -108h-191q4 57 4 93q0 100 -10 135q-17 59 -75 59q-45 0 -63 -32q-15 -27 -15 -118v-753q0 -90 15 -118q17 -32 63 -32
q52 0 69 42q16 40 16 141q0 55 -4 146z" />
    <glyph glyph-name="cacute" unicode="&#x107;" horiz-adv-x="613" vert-adv-y="1731" 
d="M201 1184l93 153h199l-148 -153h-144zM558 661h-177v41v45q0 67 -12 89q-17 32 -56 32q-64 0 -64 -105v-509q0 -105 64 -105q39 0 56 32q12 22 12 89v45v58h177q3 -87 3 -108q0 -119 -47 -186q-64 -93 -203 -93q-117 0 -184 86q-55 69 -55 201v471q0 132 55 202
q67 85 184 85q139 0 203 -93q47 -67 47 -182q0 -20 -3 -95z" />
    <glyph glyph-name="Ccaron" unicode="&#x10c;" horiz-adv-x="696" vert-adv-y="1731" 
d="M537 1630l-92 -156h-193l-92 156h143l46 -53l45 53h143zM429 485h190q5 -99 5 -143q0 -363 -276 -363q-269 0 -269 327v753q0 327 269 327q276 0 276 -356q0 -39 -4 -108h-191q4 57 4 93q0 100 -10 135q-17 59 -75 59q-45 0 -63 -32q-15 -27 -15 -118v-753q0 -90 15 -118
q17 -32 63 -32q52 0 69 42q16 40 16 141q0 55 -4 146z" />
    <glyph glyph-name="ccaron" unicode="&#x10d;" horiz-adv-x="613" vert-adv-y="1731" 
d="M495 1339l-92 -156h-193l-92 156h143l46 -53l45 53h143zM558 661h-177v41v45q0 67 -12 89q-17 32 -56 32q-64 0 -64 -105v-509q0 -105 64 -105q39 0 56 32q12 22 12 89v45v58h177q3 -87 3 -108q0 -119 -47 -186q-64 -93 -203 -93q-117 0 -184 86q-55 69 -55 201v471
q0 132 55 202q67 85 184 85q139 0 203 -93q47 -67 47 -182q0 -20 -3 -95z" />
    <glyph glyph-name="dcroat" unicode="&#x111;" horiz-adv-x="639" vert-adv-y="1731" 
d="M557 0h-173l-4 96q-95 -110 -171 -110q-41 0 -78 28q-40 31 -50 94q-6 35 -6 118v565q0 135 28 181q16 28 51 45q27 14 54 14q76 0 172 -110v217h-102v139h102v88h177v-88h70v-139h-70v-1138zM380 826q-49 41 -82 41q-46 0 -46 -76v-565q0 -76 46 -76q33 0 82 41v635z
" />
    <glyph glyph-name="Gbreve" unicode="&#x11e;" horiz-adv-x="703" vert-adv-y="1731" 
d="M262 1632q49 -36 90 -36q40 0 89 36l98 -69q-19 -35 -57 -61q-60 -41 -130 -41q-76 0 -138 46q-33 24 -50 56zM620 694v-694h-102l-30 94q-78 -114 -176 -114q-86 0 -152 65q-57 56 -73 149q-8 47 -8 142v723q0 327 269 327q276 0 276 -356q0 -37 -4 -108h-190q3 56 3 92
q0 101 -10 136q-17 59 -75 59q-46 0 -63 -32q-15 -28 -15 -118v-723q0 -110 13 -137q21 -42 64 -42q48 0 70 48q12 28 12 131v197h-84v161h275z" />
    <glyph glyph-name="gbreve" unicode="&#x11f;" horiz-adv-x="625" vert-adv-y="1731" 
d="M223 1341q49 -36 90 -36q40 0 89 36l98 -69q-19 -35 -57 -61q-60 -41 -130 -41q-75 0 -138 46q-32 24 -50 56zM619 1031v-168q-26 9 -42 9q-25 0 -55 -19v-29v-41v-248q0 -117 -43 -184q-58 -91 -168 -91q-20 0 -47 2q-51 -11 -51 -49q0 -37 46 -55q23 -9 161 -27
q98 -13 153 -73q57 -62 57 -159q0 -115 -84 -189q-83 -73 -230 -73q-122 0 -200 43q-43 25 -67 72q-16 33 -16 70q0 101 152 178q-55 18 -80 37q-41 30 -41 83q0 96 121 167q-100 69 -101 218v295q0 103 56 164q62 67 162 67q115 0 183 -95q49 88 134 95zM366 498v295
q0 76 -63 76t-63 -76v-295q0 -76 63 -76t63 76zM298 -15q-40 -22 -55 -36q-33 -30 -33 -71q0 -32 20 -55q32 -36 100 -36q77 0 112 43q21 25 21 60q0 51 -43 70q-19 9 -67.5 18.5t-54.5 6.5z" />
    <glyph glyph-name="Idotaccent" unicode="&#x130;" horiz-adv-x="355" vert-adv-y="1731" 
d="M266 1656v-182h-177v182h177zM273 1365v-1365h-191v1365h191z" />
    <glyph glyph-name="dotlessi" unicode="&#x131;" horiz-adv-x="330" vert-adv-y="1731" 
d="M253 1017v-1017h-177v1017h177z" />
    <glyph glyph-name="Lslash" unicode="&#x141;" horiz-adv-x="576" vert-adv-y="1731" 
d="M82 572l-55 -42v206l55 42v587h191v-467l142 109v-206l-142 -110v-513h269v-178h-460v572z" />
    <glyph glyph-name="lslash" unicode="&#x142;" horiz-adv-x="418" vert-adv-y="1731" 
d="M120 605l-93 -71v193l93 71v567h177v-451l94 71v-192l-94 -72v-721h-177v605z" />
    <glyph glyph-name="OE" unicode="&#x152;" horiz-adv-x="949" vert-adv-y="1731" 
d="M889 1365v-177h-269v-384h188v-177h-188v-450h285v-177h-476q-104 0 -147 8q-138 30 -184 154q-16 47 -18 107q-1 38 -1 100v630q0 101 3 136t16 69q46 123 184 153q40 8 147 8h460zM429 1188h-80q-83 -5 -79 -111v-789q-4 -106 79 -111h80v1011z" />
    <glyph glyph-name="oe" unicode="&#x153;" horiz-adv-x="942" vert-adv-y="1731" 
d="M689 356h178q3 -74 3 -95q0 -115 -47 -182q-65 -93 -201 -93q-50 0 -79 11q-28 11 -75 43q-33 -26 -51 -35q-39 -19 -109 -19q-119 0 -184 85q-52 68 -52 202v471q0 133 52 202q64 85 185 85q77 0 159 -48q84 48 162 48q108 0 173 -69q64 -68 64 -185v-299h-309v-224
q0 -105 65 -105q39 0 55 32q13 25 12 89l-1 45v41zM249 773v-529q0 -94 66 -94t66 94v529q0 94 -66 94t-66 -94zM558 620h132v172q0 75 -66 75t-66 -75v-172z" />
    <glyph glyph-name="Scedilla" unicode="&#x15e;" horiz-adv-x="1224" vert-adv-y="1731" 
d="M638 -29l-58 -84q58 10 82 10q72 0 116 -33q52 -40 52 -105q0 -83 -78 -132q-56 -36 -144 -36q-111 0 -228 49l29 64q97 -43 179 -43q57 0 89 25q35 27 35 66q0 43 -41 66q-25 14 -62 14q-40 0 -98 -19l-39 34l87 127q-298 16 -421 195q-85 120 -82 287h193
q4 -88 18 -130q37 -108 135 -159q92 -47 219 -47q168 0 255 70q87 71 87 182q0 124 -119 175q-46 20 -388 112q-208 56 -282 141t-74 214q0 191 160 295q129 85 333 85q289 0 424 -151q92 -101 99 -274h-184q-17 276 -345 276q-130 0 -212 -54q-88 -57 -88 -166
q0 -106 78 -152q58 -34 264 -86q272 -69 351 -109q175 -90 175 -293q0 -169 -114 -278q-135 -128 -403 -136z" />
    <glyph glyph-name="scedilla" unicode="&#x15f;" horiz-adv-x="962" vert-adv-y="1731" 
d="M508 -27l-58 -82q48 10 83 10q49 0 86 -19q71 -37 71 -113q0 -82 -74 -127q-57 -35 -140 -35q-106 0 -215 47l27 60q94 -41 173 -41q62 0 95 33q24 24 24 56q0 39 -33 62q-25 18 -65 18q-41 0 -94 -21l-39 32l85 121q-144 7 -249 79q-133 93 -136 281h169
q11 -243 265 -243q115 0 177 48q68 51 68 130q0 56 -36 90q-37 34 -92 51q-59 18 -141 36q-195 43 -268 84q-112 64 -112 200q0 147 126 222q96 58 269 58q229 0 332 -116q62 -69 69 -198h-163q-7 76 -34 118q-56 84 -209 84q-119 0 -175 -56q-40 -39 -40 -99q0 -51 27 -81
q33 -35 86 -51q65 -19 168 -41q169 -36 247 -79q120 -65 120 -212q0 -185 -193 -266q-81 -35 -201 -40z" />
    <glyph glyph-name="Scaron" unicode="&#x160;" horiz-adv-x="664" vert-adv-y="1731" 
d="M55 394l188 10q-2 -76 0 -117q7 -131 97 -131q86 0 86 136q0 67 -32 137q-21 45 -85 131l-94 140q-76 114 -109 189q-45 103 -45 202q0 130 70 208q77 87 210 87q136 0 204 -98q54 -76 56 -202v-69l-187 -19q0 89 -5 125q-12 86 -79 86q-80 0 -80 -128q0 -72 33 -133
q20 -37 101 -159l96 -141q137 -200 137 -385q0 -110 -47 -180q-69 -104 -230 -104q-152 0 -228 104q-41 55 -52 117q-8 50 -8 122q0 33 3 72zM521 1630l-92 -156h-193l-92 156h143l46 -53l45 53h143z" />
    <glyph glyph-name="scaron" unicode="&#x161;" horiz-adv-x="561" vert-adv-y="1731" 
d="M522 773l-171 -11q0 25 -2 39q-7 66 -57 66q-59 0 -59 -96q0 -38 11 -69q13 -37 62 -88l71 -74q79 -83 116 -152q32 -60 32 -139q0 -101 -54 -173q-67 -90 -193 -90q-147 0 -212 119q-27 50 -27 127q0 12 2 27l173 11q-3 -18 -3 -32q0 -88 68 -88q38 0 57 33q12 22 12 55
q0 54 -29 99q-16 25 -75 87l-68 71q-117 122 -117 277q0 259 245 259q88 0 143 -46q65 -55 73 -158q2 -20 2 -54zM470 1339l-92 -156h-193l-92 156h143l46 -53l45 53h143z" />
    <glyph glyph-name="Ydieresis" unicode="&#x178;" horiz-adv-x="670" vert-adv-y="1731" 
d="M239 568l-212 797h206l104 -503l105 503h200l-212 -797v-568h-191v568zM280 1656v-182h-157v182h157zM546 1656v-182h-157v182h157z" />
    <glyph glyph-name="Zcaron" unicode="&#x17d;" horiz-adv-x="640" vert-adv-y="1731" 
d="M55 0v177l340 1011h-302v177h493v-177l-340 -1011h340v-177h-531zM509 1630l-92 -156h-193l-92 156h143l46 -53l45 53h143z" />
    <glyph glyph-name="zcaron" unicode="&#x17e;" horiz-adv-x="558" vert-adv-y="1731" 
d="M504 164v-164h-449v151l263 702h-233v164h419v-152l-255 -701h255zM468 1339l-92 -156h-193l-92 156h143l46 -53l45 53h143z" />
    <glyph glyph-name="florin" unicode="&#x192;" horiz-adv-x="696" vert-adv-y="1731" 
d="M143 -205l121 1161h-80l17 165h81l12 120q12 113 59 166q60 68 164 68q28 0 69 -4l-17 -165q-16 2 -27 2q-63 0 -70 -67l-13 -120h90l-17 -165h-90l-122 -1161h-177z" />
    <glyph glyph-name="circumflex" unicode="&#x2c6;" vert-adv-y="1731" 
d="M324 1183l92 156h193l92 -156h-143l-45 53l-46 -53h-143z" />
    <glyph glyph-name="caron" unicode="&#x2c7;" vert-adv-y="1731" 
d="M701 1339l-92 -156h-193l-92 156h143l46 -53l45 53h143z" />
    <glyph glyph-name="uni02C9" unicode="&#x2c9;" vert-adv-y="1731" 
d="M344 1177v137h335v-137h-335z" />
    <glyph glyph-name="breve" unicode="&#x2d8;" vert-adv-y="1731" 
d="M422 1341q49 -36 90 -36q40 0 89 36l98 -69q-19 -35 -57 -61q-60 -41 -130 -41q-75 0 -138 46q-32 24 -50 56z" />
    <glyph glyph-name="dotaccent" unicode="&#x2d9;" vert-adv-y="1731" 
d="M600 1365v-182h-177v182h177z" />
    <glyph glyph-name="ring" unicode="&#x2da;" vert-adv-y="1731" 
d="M514 1429q59 0 104 -42q44 -39 44 -99q0 -61 -44 -102q-44 -42 -106 -42t-106 42t-44 101q0 61 44 100q47 42 108 42zM511 1358q-29 0 -52 -21q-22 -20 -22 -50t22 -51t53 -21t53 21t22 51t-22 50q-23 21 -54 21z" />
    <glyph glyph-name="ogonek" unicode="&#x2db;" vert-adv-y="1731" 
d="M518 0h94q-90 -75 -90 -139q0 -68 88 -68q28 0 57 10l-15 -105q-35 -13 -72 -13q-58 0 -103 23q-65 35 -65 112q0 88 106 180z" />
    <glyph glyph-name="tilde" unicode="&#x2dc;" vert-adv-y="1731" 
d="M344 1178v142q45 31 96 31q35 0 74 -17q56 -23 84 -23q32 0 81 35v-142q-50 -35 -81 -35q-28 0 -84 23q-39 17 -74 17q-51 0 -96 -31z" />
    <glyph glyph-name="hungarumlaut" unicode="&#x2dd;" vert-adv-y="1731" 
d="M317 1184l80 153h169l-126 -153h-123zM566 1184l80 153h170l-127 -153h-123z" />
    <glyph glyph-name="pi" unicode="&#x3c0;" horiz-adv-x="1163" vert-adv-y="1731" 
d="M188 0v842h-148v139h1084v-139h-148v-842h-172v842h-444v-842h-172z" />
    <glyph glyph-name="endash" unicode="&#x2013;" horiz-adv-x="696" vert-adv-y="1731" 
d="M78 427v160h541v-160h-541z" />
    <glyph glyph-name="emdash" unicode="&#x2014;" horiz-adv-x="783" vert-adv-y="1731" 
d="M0 427v160h783v-160h-783z" />
    <glyph glyph-name="quoteleft" unicode="&#x2018;" horiz-adv-x="382" vert-adv-y="1731" 
d="M287 946h-191v205l86 242h105l-70 -242h70v-205z" />
    <glyph glyph-name="quoteright" unicode="&#x2019;" horiz-adv-x="382" vert-adv-y="1731" 
d="M96 1365h191v-205l-86 -241h-105l70 241h-70v205z" />
    <glyph glyph-name="quotesinglbase" unicode="&#x201a;" horiz-adv-x="382" vert-adv-y="1731" 
d="M96 205h191v-205l-86 -242h-105l70 242h-70v205z" />
    <glyph glyph-name="quotedblleft" unicode="&#x201c;" horiz-adv-x="662" vert-adv-y="1731" 
d="M567 946h-191v205l86 242h105l-70 -242h70v-205zM287 946h-191v205l86 242h105l-70 -242h70v-205z" />
    <glyph glyph-name="quotedblright" unicode="&#x201d;" horiz-adv-x="662" vert-adv-y="1731" 
d="M96 1365h191v-205l-86 -241h-105l70 241h-70v205zM376 1365h191v-205l-86 -241h-105l70 241h-70v205z" />
    <glyph glyph-name="quotedblbase" unicode="&#x201e;" horiz-adv-x="662" vert-adv-y="1731" 
d="M96 205h191v-205l-86 -242h-105l70 242h-70v205zM376 205h191v-205l-86 -242h-105l70 242h-70v205z" />
    <glyph glyph-name="dagger" unicode="&#x2020;" horiz-adv-x="696" vert-adv-y="1731" 
d="M603 1028v-153h-172v-875h-164v875h-173v153h173v337h164v-337h172z" />
    <glyph glyph-name="daggerdbl" unicode="&#x2021;" horiz-adv-x="696" vert-adv-y="1731" 
d="M603 1028v-153h-172v-357h172v-153h-172v-365h-164v365h-173v153h173v357h-173v153h173v337h164v-337h172z" />
    <glyph glyph-name="bullet" unicode="&#x2022;" horiz-adv-x="1365" vert-adv-y="1731" 
d="M689 978q113 0 196 -83q84 -83 84 -201t-83 -201t-201 -83q-116 0 -199 82q-85 84 -85 202q0 121 84 202q86 82 204 82z" />
    <glyph glyph-name="ellipsis" unicode="&#x2026;" horiz-adv-x="1147" vert-adv-y="1731" 
d="M96 0v205h191v-205h-191zM478 0v205h191v-205h-191zM861 0v205h191v-205h-191z" />
    <glyph glyph-name="perthousand" unicode="&#x2030;" horiz-adv-x="1352" vert-adv-y="1731" 
d="M368 1185v-355q0 -64 -4 -88t-19 -48q-38 -59 -120 -59t-120 59q-20 31 -22 71q-1 22 -1 65v355q0 72 6 94q14 57 64 83q33 17 73 17q82 0 120 -59q20 -31 22 -70q1 -22 1 -65zM267 793v428q0 59 -42 59t-42 -59v-428q0 -58 42 -58t42 58zM242 -68l386 1502h102
l-394 -1502h-94zM889 537v-355q0 -73 -6 -95q-14 -57 -64 -83q-33 -18 -73 -18q-82 0 -120 60q-20 31 -22 70q-1 23 -1 66v354q0 72 6 95q14 56 64 82q33 17 73 17q82 0 120 -59q20 -31 22 -69q1 -22 1 -65zM788 145v428q0 58 -42 58t-42 -58v-428q0 -59 42 -59t42 59z
M1271 537v-355q0 -73 -6 -95q-14 -57 -64 -83q-33 -18 -73 -18q-82 0 -120 60q-20 31 -22 70q-1 23 -1 66v354q0 72 6 95q14 56 64 82q33 17 73 17q82 0 120 -59q20 -31 22 -69q1 -21 1 -65zM1170 145v428q0 58 -42 58t-42 -58v-428q0 -59 42 -59t42 59z" />
    <glyph glyph-name="guilsinglleft" unicode="&#x2039;" horiz-adv-x="319" vert-adv-y="1731" 
d="M238 826v-245l-53 -69l53 -69v-245l-156 167v294z" />
    <glyph glyph-name="guilsinglright" unicode="&#x203a;" horiz-adv-x="319" vert-adv-y="1731" 
d="M82 826l156 -167v-294l-156 -167v245l53 69l-53 69v245z" />
    <glyph glyph-name="franc" unicode="&#x20a3;" horiz-adv-x="1039" vert-adv-y="1731" 
d="M82 1365h460v-177h-269v-384h189v-177h-189v-627h-191v1365zM646 1017h177v-127q71 147 182 141v-198q-46 8 -67 8q-62 0 -95 -48q-20 -29 -20 -103v-690h-177v1017z" />
    <glyph glyph-name="one" unicode="&#x20ac;" horiz-adv-x="1147" vert-adv-y="1731" 
d="M175 858q37 187 137 327q138 194 409 194q205 0 392 -133l-70 -168q-108 74 -171 99q-84 33 -164 33q-159 0 -250 -141q-56 -86 -80 -211h573l-47 -117h-546q-4 -38 -4 -74q0 -25 2 -45h496l-48 -117h-430q27 -146 105 -251q82 -110 235 -110q91 0 199 46q43 18 130 65
v-200q-146 -83 -332 -83q-447 0 -540 533h-163l46 117h104q-1 34 -1 50q0 33 4 69h-153l46 117h121z" />
    <glyph glyph-name="trademark" unicode="&#x2122;" horiz-adv-x="1009" vert-adv-y="1731" 
d="M165 587v665h-104v113h336v-113h-107v-665h-125zM913 1365v-778h-109v470l-93 -470h-60l-93 469v-469h-107v778h144l86 -375l86 375h146z" />
    <glyph glyph-name="Ohm" unicode="&#x2126;" horiz-adv-x="1364" vert-adv-y="1731" 
d="M56 0v160h357q-361 211 -361 587q0 309 232 506q171 145 397 145q228 0 399 -145q231 -196 231 -507q0 -375 -360 -586h357v-160h-537v149q130 71 208 166q146 177 146 399q0 248 -164 406q-120 116 -278 116q-159 0 -281 -116q-164 -157 -164 -404q0 -371 355 -567v-149
h-537z" />
    <glyph glyph-name="partialdiff" unicode="&#x2202;" vert-adv-y="1731" 
d="M164 1224l22 146q178 -23 293 -72q258 -109 386 -363q98 -193 98 -438q0 -195 -82 -320q-66 -100 -171 -152q-92 -46 -197 -46q-152 0 -273 91q-69 52 -113 126q-66 110 -66 242q0 138 73 256q62 101 165 152q87 43 182 43q128 0 208 -57q24 -17 87 -85q-15 29 -68 150
q-2 16 -65 93q-57 70 -131 114q-124 73 -212 95q-57 15 -136 25zM519 751q-65 0 -138 -37q-63 -32 -103 -96q-53 -83 -53 -182q0 -136 94 -229q83 -82 192 -82q100 0 179 67q106 90 106 251q0 156 -96 239q-79 69 -181 69z" />
    <glyph glyph-name="Delta" unicode="&#x2206;" horiz-adv-x="1285" vert-adv-y="1731" 
d="M14 0l533 1365h189l536 -1365h-1258zM250 160h782l-389 1009z" />
    <glyph glyph-name="product" unicode="&#x220f;" horiz-adv-x="1365" vert-adv-y="1731" 
d="M52 1536h1262v-149h-151v-1750h151v-149h-467v149h150v1750h-629v-1750h149v-149h-465v149h152v1750h-152v149z" />
    <glyph glyph-name="summation" unicode="&#x2211;" horiz-adv-x="1365" vert-adv-y="1731" 
d="M1233 1536v-480h-167l-17 310h-775l508 -816l-507 -894h792l10 314h175v-482h-1182v195l495 867l-495 793v193h1163z" />
    <glyph glyph-name="minus" unicode="&#x2212;" horiz-adv-x="696" vert-adv-y="1731" 
d="M621 776v-135h-545v135h545z" />
    <glyph glyph-name="uni2215" unicode="&#x2215;" horiz-adv-x="173" vert-adv-y="1731" 
d="M-157 -68l386 1502h101l-393 -1502h-94z" />
    <glyph glyph-name="radical" unicode="&#x221a;" horiz-adv-x="1365" vert-adv-y="1731" 
d="M1365 1693v-153h-385l-445 -1540h-204l-164 587h-167v153h274l81 -273q9 -31 56 -248l7 -32h10q8 39 43 179l52 212l95 324l227 791h520z" />
    <glyph glyph-name="infinity" unicode="&#x221e;" horiz-adv-x="1365" vert-adv-y="1731" 
d="M685 607q-153 -222 -340 -222q-156 0 -242 111q-65 83 -65 203q0 173 133 258q79 51 174 51q187 0 335 -222q150 222 342 222q159 0 244 -115q61 -82 61 -197q0 -150 -97 -235q-86 -76 -207 -76q-191 0 -338 222zM749 697q6 -9 12 -19q115 -174 247 -174q85 0 138 62
q45 52 45 130q0 101 -70 154q-51 39 -115 39q-108 0 -199 -112q-20 -24 -41 -54zM616 696q-6 8 -12 18q-115 175 -247 175q-85 0 -138 -61q-45 -53 -45 -131q0 -101 70 -154q51 -39 115 -39q108 0 199 111q20 24 41 55q17 25 17 26z" />
    <glyph glyph-name="integral" unicode="&#x222b;" vert-adv-y="1731" 
d="M179 -490l35 172q46 -21 82 -21q84 0 108 70q9 26 10 191v1148q1 173 3.5 209.5t14.5 79.5q24 82 101 132q69 45 172 45q58 0 139 -22l-35 -172q-45 21 -83 21q-83 0 -107 -70q-10 -30 -10 -137v-1198q0 -184 -6 -227q-21 -141 -123 -195q-80 -43 -203 -43q-54 0 -98 17z
" />
    <glyph glyph-name="approxequal" unicode="&#x2248;" vert-adv-y="1731" 
d="M121 712l-100 69q107 241 283 241q76 0 237 -78q97 -48 126 -56q31 -9 58 -9q68 0 115 50q26 28 64 87l100 -69q-104 -239 -302 -239q-31 0 -74 14q-41 12 -167 74q-107 52 -168 52q-56 0 -102 -44q-31 -30 -70 -92zM121 343l-100 69q108 240 283 240q76 0 237 -78
q96 -47 126 -55q32 -9 58 -9q68 0 115 50q26 28 64 86l100 -69q-105 -238 -302 -238q-30 0 -74 14q-44 13 -167 74q-106 52 -168 52q-56 0 -102 -45q-31 -30 -70 -91z" />
    <glyph glyph-name="notequal" unicode="&#x2260;" horiz-adv-x="696" vert-adv-y="1731" 
d="M193 504h-117v135h169l53 138h-222v135h273l55 143l127 -49l-37 -94h127v-135h-179l-53 -138h232v-135h-284l-56 -146l-126 48z" />
    <glyph glyph-name="lessequal" unicode="&#x2264;" vert-adv-y="1731" 
d="M955 1240v-182l-676 -256l676 -256v-182l-887 356v165zM955 306v-169h-887v169h887z" />
    <glyph glyph-name="greaterequal" unicode="&#x2265;" vert-adv-y="1731" 
d="M69 364v182l676 256l-677 256v182l887 -356v-164zM68 137v169h887v-169h-887z" />
    <glyph glyph-name="lozenge" unicode="&#x25ca;" horiz-adv-x="1365" vert-adv-y="1731" 
d="M683 1419l531 -736l-531 -736l-532 736zM683 1238l-404 -555l404 -554l403 554z" />
    <glyph glyph-name="uniF001" unicode="&#xf001;" horiz-adv-x="674" vert-adv-y="1731" 
d="M103 0v853h-81v164h81v120q0 110 41 163q52 68 174 68q54 0 161 -8v-166q-68 8 -120 8q-47 0 -63 -16t-16 -49v-120h318v-1017h-177v853h-141v-853h-177z" />
    <glyph glyph-name="uniF002" unicode="&#xf002;" horiz-adv-x="674" vert-adv-y="1731" 
d="M103 0v853h-81v164h81v120q0 90 22 134q49 98 196 98l100 -4h177v-1365h-177v1200q-55 3 -72 3q-69 0 -69 -66v-120h83v-164h-83v-853h-177z" />
    <glyph glyph-name="glyph172" horiz-adv-x="696" vert-adv-y="696" 
 />
    <glyph glyph-name="glyph210" horiz-adv-x="355" vert-adv-y="1731" 
 />
    <glyph glyph-name="glyph259" vert-adv-y="1731" 
d="M471 1656v-182h-157v182h157zM710 1656v-182h-157v182h157z" />
    <glyph glyph-name="glyph260" vert-adv-y="1731" 
d="M701 1630l-92 -156h-193l-92 156h143l46 -53l45 53h143z" />
    <glyph glyph-name="glyph261" vert-adv-y="1731" 
d="M600 1656v-182h-177v182h177z" />
    <glyph glyph-name="glyph262" vert-adv-y="1731" 
d="M422 1632q49 -36 90 -36q40 0 89 36l98 -69q-19 -35 -57 -61q-60 -41 -130 -41q-76 0 -138 46q-33 24 -50 56z" />
    <glyph glyph-name="glyph263" vert-adv-y="1731" 
d="M407 1475l93 153h199l-148 -153h-144z" />
    <glyph glyph-name="glyph264" vert-adv-y="1731" 
d="M344 1470v141q45 31 96 31q35 0 74 -17q56 -23 84 -23q31 0 81 35v-142q-50 -35 -81 -35q-28 0 -84 23q-39 17 -74 17q-51 0 -96 -30z" />
    <glyph glyph-name="glyph265" vert-adv-y="1731" 
d="M458 1656v-182h-157v182h157zM724 1656v-182h-157v182h157z" />
    <glyph glyph-name="glyph266" vert-adv-y="1731" 
d="M324 1474l92 156h193l92 -156h-143l-45 53l-46 -53h-143z" />
    <glyph glyph-name="glyph267" vert-adv-y="1731" 
d="M481 1365v-182h-157v182h157zM699 1365v-182h-157v182h157z" />
    <glyph glyph-name="glyph268" vert-adv-y="1731" 
d="M604 1475h-144l-148 153h198z" />
    <glyph glyph-name="glyph271" horiz-adv-x="355" vert-adv-y="1731" 
 />
    </font>
</defs>
</svg>
